<svg xmlns="http://www.w3.org/2000/svg" width="24.581" height="25.291" viewBox="0 0 24.581 25.291">
  <g id="baby-svgrepo-com" transform="translate(-7.188 0)">
    <g id="Group_171" data-name="Group 171" transform="translate(22.923 5.037)">
      <path id="Path_500" data-name="Path 500" d="M326.622,102.1a1.476,1.476,0,0,1,.6-.128,1.491,1.491,0,0,1,1.491,1.491,1.511,1.511,0,0,1-.009.158,1.491,1.491,0,0,1-2.974-.158,1.519,1.519,0,0,1,.009-.158A1.492,1.492,0,0,1,326.622,102.1Z" transform="translate(-325.735 -101.969)" fill="#f95428"/>
      <path id="Path_501" data-name="Path 501" d="M374.154,135.913l-2.469,3.387-1.442,1.978-2.087-4.706a1.49,1.49,0,0,0,.878-1.2Z" transform="translate(-366.061 -133.717)" fill="#f95428"/>
    </g>
    <path id="Path_502" data-name="Path 502" d="M450.934,245.65a2.756,2.756,0,0,1,0,5.4,10.064,10.064,0,0,0,0-5.4Z" transform="translate(-421.826 -233.516)" fill="#f9e0d2"/>
    <path id="Path_503" data-name="Path 503" d="M18.677,245.65a10.072,10.072,0,0,0,0,5.4,2.757,2.757,0,0,1,0-5.4Z" transform="translate(-8.828 -233.516)" fill="#e5cdc1"/>
    <path id="Path_504" data-name="Path 504" d="M83.01,100.519a1.488,1.488,0,0,0,.807,1.324c-.611.752-4.988,5.646-13.42,2.988a10,10,0,0,1,8.188-5.956l-.685.94,5.119.545A1.505,1.505,0,0,0,83.01,100.519Z" transform="translate(-60.087 -93.991)" fill="#f7b239"/>
    <path id="Path_505" data-name="Path 505" d="M82.133,98.242a10.021,10.021,0,0,0-6.9,6.454,15.811,15.811,0,0,1-4.833-.783,10.012,10.012,0,0,1,11.737-5.671Z" transform="translate(-60.086 -93.073)" fill="#e09b2d"/>
    <path id="Path_506" data-name="Path 506" d="M73.226,168.655a10,10,0,1,1-18.8-6.694c8.432,2.659,12.809-2.236,13.42-2.988a1.491,1.491,0,0,0,1.288.039l2.087,4.707,1.442-1.978a10.041,10.041,0,0,1,.561,6.915Z" transform="translate(-44.118 -151.12)" fill="#f9e0d2"/>
    <path id="Path_507" data-name="Path 507" d="M226.183,9.289l2.088,4.706a1.492,1.492,0,0,0-.879,1.205l-5.119-.545.685-.94Z" transform="translate(-204.461 -8.83)" fill="#f95428"/>
    <path id="Path_508" data-name="Path 508" d="M66.164,233.115a10,10,0,0,1-11.737-13.659,15.81,15.81,0,0,0,4.833.783c-.057.168-.109.339-.158.511a10,10,0,0,0,7.061,12.365Z" transform="translate(-44.117 -208.616)" fill="#e5cdc1"/>
    <g id="Group_172" data-name="Group 172" transform="translate(25.562 13.336)">
      <path id="Path_509" data-name="Path 509" d="M379.607,304.073a.459.459,0,0,1-.354-.75,7.947,7.947,0,0,0,1.817-4.754.459.459,0,0,1,.458-.44h.019a.458.458,0,0,1,.44.477,8.864,8.864,0,0,1-2.025,5.3A.457.457,0,0,1,379.607,304.073Z" transform="translate(-379.149 -296.739)" fill="#fff"/>
      <circle id="Ellipse_135" data-name="Ellipse 135" cx="0.459" cy="0.459" r="0.459" transform="translate(1.865)" fill="#fff"/>
    </g>
    <g id="Group_173" data-name="Group 173" transform="translate(7.188 0)">
      <path id="Path_510" data-name="Path 510" d="M31.769,14.834a3.225,3.225,0,0,0-2.294-3.08,10.42,10.42,0,0,0-.4-1.079L31.387,7.5a.459.459,0,0,0-.322-.726l-4.718-.5A1.947,1.947,0,0,0,24.066,4.61L22.142.272a.459.459,0,0,0-.79-.084L18.246,4.451a10.453,10.453,0,0,0-8.762,7.3,3.215,3.215,0,0,0,0,6.162,10.458,10.458,0,0,0,19.986,0A3.225,3.225,0,0,0,31.769,14.834ZM26.25,7.185l3.928.419L27.2,11.685,25.6,8.073A1.958,1.958,0,0,0,26.25,7.185Zm-.8-.657A1.032,1.032,0,1,1,24.414,5.5,1.034,1.034,0,0,1,25.447,6.528ZM21.626,1.37l1.6,3.612a1.958,1.958,0,0,0-.649.888l-3.928-.418ZM17.476,5.506l-.035.048a.459.459,0,0,0,.322.726l4.718.5a1.945,1.945,0,0,0,.573,1.141,10.28,10.28,0,0,1-2.8,2.053,11.174,11.174,0,0,1-4.07,1.141,14.508,14.508,0,0,1-5.228-.565A9.545,9.545,0,0,1,17.476,5.506ZM8.105,14.834a2.307,2.307,0,0,1,1.1-1.961,10.52,10.52,0,0,0,0,3.922A2.307,2.307,0,0,1,8.105,14.834Zm11.373,9.54a9.545,9.545,0,0,1-8.9-12.974,16.165,16.165,0,0,0,4.521.683q.589,0,1.163-.05a12.087,12.087,0,0,0,4.4-1.236,11.033,11.033,0,0,0,3.2-2.4,1.935,1.935,0,0,0,.9.047l1.923,4.337a.458.458,0,0,0,.371.27l.049,0a.459.459,0,0,0,.371-.188l.961-1.319a9.546,9.546,0,0,1-8.959,12.825ZM29.75,16.8a10.539,10.539,0,0,0,0-3.922,2.3,2.3,0,0,1,0,3.922Z" transform="translate(-7.188 0)" fill="#333"/>
      <path id="Path_511" data-name="Path 511" d="M139.762,291.381a.459.459,0,0,0,.459-.459,1.989,1.989,0,0,0-3.977,0,.459.459,0,0,0,.917,0,1.071,1.071,0,0,1,2.143,0A.459.459,0,0,0,139.762,291.381Z" transform="translate(-129.869 -274.662)" fill="#333"/>
      <path id="Path_512" data-name="Path 512" d="M297.223,288.934a1.991,1.991,0,0,0-1.989,1.989.459.459,0,0,0,.917,0,1.071,1.071,0,0,1,2.143,0,.459.459,0,0,0,.917,0A1.991,1.991,0,0,0,297.223,288.934Z" transform="translate(-281.005 -274.662)" fill="#333"/>
      <path id="Path_513" data-name="Path 513" d="M203.259,389.091a2.993,2.993,0,0,1-4.228,0,.459.459,0,1,0-.649.649,3.9,3.9,0,0,0,5.525,0,.459.459,0,1,0-.649-.649Z" transform="translate(-188.811 -369.743)" fill="#333"/>
      <path id="Path_514" data-name="Path 514" d="M234.782,343.536h1.224a.459.459,0,0,0,0-.917h-1.224a.459.459,0,0,0,0,.917Z" transform="translate(-223.103 -325.695)" fill="#333"/>
    </g>
  </g>
</svg>