<svg xmlns="http://www.w3.org/2000/svg" width="30.971" height="24.543" viewBox="0 0 30.971 24.543">
  <path id="breakfast" d="M15.178,0A11.229,11.229,0,0,1,26.4,11.225a11.045,11.045,0,0,1-.076,1.3,5.479,5.479,0,0,0-.7-.4c.023-.295.038-.592.038-.895a10.428,10.428,0,0,0-1.058-4.592,1.043,1.043,0,0,1-.1.164h0l-.018.023-2.3,2.961-.02.025a1.008,1.008,0,0,1-.58.333.975.975,0,0,1-.688-.179l-.368-.28a4.226,4.226,0,0,1,.139.6,2.2,2.2,0,0,1-.307,1.512h0a2.971,2.971,0,0,1-1.094,1.008v3.5a.312.312,0,0,1,0,.068.877.877,0,0,1-.386.67,1.512,1.512,0,0,1-.822.171h-5.65l.628-.63h5.01a1.031,1.031,0,0,0,.484-.073c.05-.033.081-.1.1-.229V12.621a.32.32,0,0,1,.171-.272,2.5,2.5,0,0,0,1.008-.877,1.6,1.6,0,0,0,.219-1.084,3.276,3.276,0,0,0-.731-1.628c-.456-.353-.91-.706-1.368-1.056a7.132,7.132,0,0,0-3.107-.678,6.711,6.711,0,0,0-3.755,1.038A3.337,3.337,0,0,0,9.754,9.687l-.088-.02a2.986,2.986,0,0,0-.544-.091,3.926,3.926,0,0,1,1.6-2.044A7.364,7.364,0,0,1,14.835,6.4q.252,0,.5.015l-.355-.144a.93.93,0,0,1-.5-.436.756.756,0,0,1,0-.625l1.6-3.72a.139.139,0,0,1,.02-.038.789.789,0,0,1,.431-.32,2.077,2.077,0,0,1,.907.066,9.9,9.9,0,0,1,1.381.444l.063.028a6.439,6.439,0,0,1,1.608.872l-.282.234a6.734,6.734,0,0,0-1.467-.756l-.063-.028a9.715,9.715,0,0,0-1.323-.426,1.807,1.807,0,0,0-.721-.068.376.376,0,0,0-.123.06.479.479,0,0,0-.1.1l-.03.071a9.271,9.271,0,0,1,1.988.585c.554.217,1.114.469,1.57.7-.1.086-.194.174-.29.252-.416-.207-.917-.426-1.414-.62a7.19,7.19,0,0,0-2.016-.577l-1.4,3.276a.411.411,0,0,0-.02.333.6.6,0,0,0,.312.252l1.757.713q.358.091.7.212a.937.937,0,0,1,.176-.355l2.6-3.276.03-.033a.9.9,0,0,1,.252-.144.756.756,0,0,1,.277-.053,2.132,2.132,0,0,1,.887.315,9.247,9.247,0,0,1,.827.5L22.607,3.8h0A10.5,10.5,0,0,0,4.79,12.724l-.381.355-.073.071h0c-.063.066-.126.131-.184.2A11.227,11.227,0,0,1,15.178,0Zm13.9,24.044L25.167,19.7c-3.039.267-5.164-4.2-2.979-5.688,2.651-1.812,6.184,2.52,4.337,4.708L30.628,23c.99,1.036-.479,2.233-1.547,1.046Zm-22.273-5.4c.842.159,1.537-.038,2.52-1.1l2.621-2.639c.363-.37-.252-1.079-.7-.7l-2.155,2.1a.423.423,0,1,1-.6-.6l2.228-2.18c.383-.4-.209-1.076-.653-.65-.61.612-1.615,1.568-2.228,2.177a.364.364,0,1,1-.5-.5L9.55,12.394a.5.5,0,0,0-.3-.827c-.388-.088-.64.252-.907.5L5.745,14.5a2.229,2.229,0,0,0-.8,2.354,2.049,2.049,0,0,0,.252.436L.274,21.824a.9.9,0,0,0-.033,1.293l.078.081a1.023,1.023,0,0,0,1.457-.03l4.483-4.821A1.552,1.552,0,0,0,6.808,18.649ZM9.427,20.02a10.5,10.5,0,0,0,11.625-.083c.113.118.232.234.355.345.063.055.129.113.194.166A11.235,11.235,0,0,1,8.676,20.4l.066-.025A4.519,4.519,0,0,0,9.427,20.02ZM17.935,7a5.769,5.769,0,0,1,.857.456,4.319,4.319,0,0,1,1.434,1.512l.887.68a.6.6,0,0,0,.423.121.655.655,0,0,0,.358-.214L24.109,6.7a10.8,10.8,0,0,0-1.943-1.724,7.419,7.419,0,0,0-1.835-1.124L18.038,6.731A.474.474,0,0,0,17.924,7Zm-1.6,4.508a1.106,1.106,0,1,1-1.106,1.106A1.106,1.106,0,0,1,16.332,11.507Zm-.7,3.024a.4.4,0,1,1-.283.116A.4.4,0,0,1,15.634,14.531Zm-2.674-4.8a.683.683,0,1,1-.68.68.683.683,0,0,1,.68-.68Zm-2.079-.053a.335.335,0,0,1,.04.668l-.1-.1a2.52,2.52,0,0,0-.272-.212v-.018a.335.335,0,0,1,.338-.335Zm6.8.2a.562.562,0,1,0,.005,0ZM15.047,8.238a.486.486,0,1,1-.486.484.486.486,0,0,1,.486-.484ZM8.9,5.832a.333.333,0,0,1-.567-.35,6.048,6.048,0,0,1,1.988-2,4.884,4.884,0,0,1,2.563-.733.335.335,0,1,1,0,.668,4.211,4.211,0,0,0-2.2.635A5.4,5.4,0,0,0,8.918,5.832ZM20.906,3.374a.454.454,0,0,0-.141.028.585.585,0,0,0-.126.073l-.05.063a9.325,9.325,0,0,1,1.83,1.129,13.274,13.274,0,0,1,1.913,1.683.635.635,0,0,0,.02-.139.4.4,0,0,0,0-.121c-.136-.252-.282-.479-.436-.711a9.1,9.1,0,0,0-1.033-.907l-.058-.043a9.7,9.7,0,0,0-1.2-.789A1.9,1.9,0,0,0,20.906,3.374Zm1.424,2.3a.192.192,0,1,0,.039.268A.192.192,0,0,0,22.33,5.675Zm.572.5a.748.748,0,1,1,0-.008Zm.5.577a.192.192,0,0,0-.232.3.192.192,0,1,0,.229-.307ZM21.72,5.232a.168.168,0,1,0,.005.005Zm-.638-.408a.192.192,0,1,1-.143-.037.193.193,0,0,1,.143.037Zm-.68-.335a.192.192,0,1,1-.143-.037.192.192,0,0,1,.143.037ZM18.56,3.276a5.1,5.1,0,1,0-.01-.01Zm.66.318a.181.181,0,0,0-.252.1.189.189,0,0,0,.045.207c.086-.091.171-.181.252-.27a.192.192,0,0,0-.066-.04ZM17.882,3a.186.186,0,1,1-.149,0,.186.186,0,0,1,.149,0Zm-.7-.224a.186.186,0,1,1-.2.016.186.186,0,0,1,.2-.016Zm-.736-.126a.184.184,0,0,1,.106.252.182.182,0,1,1-.116-.239Z" transform="translate(0.015)" fill="#262e3c"/>
</svg>