<svg xmlns="http://www.w3.org/2000/svg" width="75.221" height="60.04" viewBox="0 0 75.221 60.04">
  <g id="icon" transform="translate(-7.433 -13.298)">
    <g id="color" transform="translate(7.95 13.298)">
      <path id="Path_603" data-name="Path 603" d="M71.78,32.564q-.079-.268-.177-.543c-2.843-7.962-10.266-12.937-17.917-15.7A53.527,53.527,0,0,0,35.6,13.308c-1.2,0-2.4.042-3.611.115a52.4,52.4,0,0,1,15.14,2.9c7.652,2.754,15.074,7.732,17.917,15.7q.1.276.177.543a5.83,5.83,0,0,1-2.059,6.627,22.915,22.915,0,0,1-7.226,3.9,74.367,74.367,0,0,1-23.59,3.944q1.624.042,3.241.042A78.7,78.7,0,0,0,62.494,43.1a22.916,22.916,0,0,0,7.226-3.9,5.83,5.83,0,0,0,2.059-6.627Z" transform="translate(-0.203 -13.296)" fill="#6a462f"/>
      <path id="Path_604" data-name="Path 604" d="M9.091,45.992q.079.309.178.627c2.851,9.186,10.293,14.929,17.97,18.1A47.351,47.351,0,0,0,45.381,68.2a44.086,44.086,0,0,0,25.785-7.693A26.711,26.711,0,0,0,81.217,47.455a11.66,11.66,0,0,0,.62-4.934,7.266,7.266,0,0,0-2.745-4.66,25.719,25.719,0,0,0-8.5-4.721,72.938,72.938,0,0,0-25.216-3.906,69.434,69.434,0,0,0-26.975,4.6,28.853,28.853,0,0,0-4.516,2.322,16.661,16.661,0,0,0-2.728,2.183,7.337,7.337,0,0,0-2.065,7.647Z" transform="translate(-7.691 -8.172)" fill="#a57939"/>
      <path id="Path_605" data-name="Path 605" d="M8.2,31.449a5.7,5.7,0,0,0,1.185,5.458,4.919,4.919,0,0,0,4.3,1.659,9.653,9.653,0,0,0,3.8,10.039,8.284,8.284,0,0,0,10.687-1.268,5.634,5.634,0,0,0,3.5,4.241,5.673,5.673,0,0,0,4.563-.757,8.713,8.713,0,0,0,7.939,6.653,8.588,8.588,0,0,0,8.631-6.76A4.68,4.68,0,0,0,57.79,52.4a5.5,5.5,0,0,0,3.6-3.033,8.226,8.226,0,0,0,10.056,1.507,9.811,9.811,0,0,0,4.415-10.469c1.719.626,2.914-.641,4.365-2.079,1.269-1.258-1.8-5.97-1.913-7.655" transform="translate(-7.95 -7.699)" fill="#b1cc33"/>
      <path id="Path_606" data-name="Path 606" d="M81.458,32.566q-.079-.268-.177-.543c-2.843-7.962-10.266-12.937-17.917-15.7A53.527,53.527,0,0,0,45.274,13.31a48.859,48.859,0,0,0-25.719,6.667A24.026,24.026,0,0,0,9.278,31.936a6.161,6.161,0,0,0,2.371,7.669A26.962,26.962,0,0,0,20.126,43.7a82.869,82.869,0,0,0,25.15,3.386A78.7,78.7,0,0,0,72.186,43.1a22.929,22.929,0,0,0,7.226-3.9,5.83,5.83,0,0,0,2.059-6.627Z" transform="translate(-7.686 -13.298)" fill="#a57939"/>
      <ellipse id="Ellipse_160" data-name="Ellipse 160" cx="14.77" cy="2.954" rx="14.77" ry="2.954" transform="translate(22.81 6.013)" fill="#6a462f"/>
    </g>
    <g id="line" transform="translate(8.533 14.411)">
      <path id="Path_607" data-name="Path 607" d="M11.312,37.96q-.273.214-.535.442a5.827,5.827,0,0,0-2.059,6.625q.079.268.177.543C11.737,53.527,19.158,58.5,26.813,61.252A53.513,53.513,0,0,0,44.9,64.268a48.833,48.833,0,0,0,25.706-6.663A24.013,24.013,0,0,0,80.88,45.653a5.9,5.9,0,0,0-1.143-6.544" transform="translate(-8.391 -6.462)" fill="none" stroke="#000" stroke-linecap="round" stroke-linejoin="round" stroke-miterlimit="7" stroke-width="2"/>
      <ellipse id="Ellipse_161" data-name="Ellipse 161" cx="14.77" cy="2.953" rx="14.77" ry="2.953" transform="translate(21.724 6)" fill="none" stroke="#000" stroke-miterlimit="7" stroke-width="2"/>
      <path id="Path_608" data-name="Path 608" d="M81.064,33.393q-.079-.268-.177-.543c-2.842-7.958-10.262-12.931-17.917-15.683A53.514,53.514,0,0,0,44.88,14.151a48.833,48.833,0,0,0-25.706,6.663A24.013,24.013,0,0,0,8.9,32.767a6.158,6.158,0,0,0,2.371,7.667,26.949,26.949,0,0,0,8.473,4.089,82.829,82.829,0,0,0,25.137,3.384,78.664,78.664,0,0,0,26.9-3.985A22.916,22.916,0,0,0,79,40.017a5.827,5.827,0,0,0,2.058-6.625Z" transform="translate(-8.391 -14.14)" fill="none" stroke="#000" stroke-miterlimit="7" stroke-width="2"/>
      <circle id="Ellipse_162" data-name="Ellipse 162" cx="1.093" cy="1.093" r="1.093" transform="translate(18.463 17.671)"/>
      <circle id="Ellipse_163" data-name="Ellipse 163" cx="1.093" cy="1.093" r="1.093" transform="translate(29.398 17.671)"/>
      <circle id="Ellipse_164" data-name="Ellipse 164" cx="1.093" cy="1.093" r="1.093" transform="translate(14.086 11.113)"/>
      <circle id="Ellipse_165" data-name="Ellipse 165" cx="1.093" cy="1.093" r="1.093" transform="translate(27.203 24.23)"/>
      <circle id="Ellipse_166" data-name="Ellipse 166" cx="1.093" cy="1.093" r="1.093" transform="translate(7.527 17.671)"/>
      <circle id="Ellipse_167" data-name="Ellipse 167" cx="1.093" cy="1.093" r="1.093" transform="translate(40.321 22.035)"/>
      <circle id="Ellipse_168" data-name="Ellipse 168" cx="1.093" cy="1.093" r="1.093" transform="translate(40.321 15.476)"/>
      <circle id="Ellipse_169" data-name="Ellipse 169" cx="1.093" cy="1.093" r="1.093" transform="translate(46.879 26.412)"/>
      <circle id="Ellipse_170" data-name="Ellipse 170" cx="1.093" cy="1.093" r="1.093" transform="translate(51.256 15.476)"/>
      <circle id="Ellipse_171" data-name="Ellipse 171" cx="1.093" cy="1.093" r="1.093" transform="translate(55.62 19.853)"/>
      <circle id="Ellipse_172" data-name="Ellipse 172" cx="1.093" cy="1.093" r="1.093" transform="translate(57.815 8.918)"/>
      <circle id="Ellipse_173" data-name="Ellipse 173" cx="1.093" cy="1.093" r="1.093" transform="translate(62.178 15.476)"/>
      <path id="Path_609" data-name="Path 609" d="M16.01,44.687a8.241,8.241,0,0,0,10.124-1.1,5.123,5.123,0,0,0,3.326,3.763,5.681,5.681,0,0,0,4.323-.66,8.185,8.185,0,0,0,7.54,5.911,8,8,0,0,0,8.163-5.965,4.629,4.629,0,0,0,4.735,1.5,5.1,5.1,0,0,0,3.409-2.678,8.213,8.213,0,0,0,9.533,1.359" transform="translate(-5.935 -4.647)" fill="none" stroke="#000" stroke-linecap="round" stroke-linejoin="round" stroke-miterlimit="7" stroke-width="2"/>
      <circle id="Ellipse_174" data-name="Ellipse 174" cx="1.093" cy="1.093" r="1.093" transform="translate(17.643 24.23)"/>
    </g>
  </g>
</svg>
