<svg xmlns="http://www.w3.org/2000/svg" width="167.94" height="147.854" viewBox="0 0 167.94 147.854">
  <g id="completed-checkmark-done-complete-svgrepo-com" transform="translate(-5.256 -8.5)">
    <path id="Path_405" data-name="Path 405" d="M79.165,156.354a73.927,73.927,0,1,1,44.041-133.32,6.292,6.292,0,0,1-7.487,10.1,61.74,61.74,0,1,0,24,39.637,6.367,6.367,0,0,1,12.583-1.95,75.027,75.027,0,0,1,.786,11.608A73.99,73.99,0,0,1,79.165,156.354Z" transform="translate(0 0)" fill="#26b49e"/>
    <path id="Path_406" data-name="Path 406" d="M55.693,102.568a6.292,6.292,0,0,1-4.436-1.856L21.372,70.826a6.292,6.292,0,0,1,8.871-8.871l25.45,25.418,75.783-75.751a6.292,6.292,0,0,1,8.871,8.871L60.128,100.712A6.292,6.292,0,0,1,55.693,102.568Z" transform="translate(31.336 3.453)" fill="#ffb300"/>
  </g>
</svg>
