<svg id="question-svgrepo-com" xmlns="http://www.w3.org/2000/svg" width="24.5" height="24.5" viewBox="0 0 24.5 24.5">
  <g id="Group_96" data-name="Group 96">
    <g id="Group_95" data-name="Group 95">
      <path id="Path_439" data-name="Path 439" d="M78,95a3,3,0,0,0-3,3v2.5a3,3,0,0,0,4.737,2.444L78.4,101.6l.707-.707,1.34,1.34A2.982,2.982,0,0,0,81,100.5V98A3,3,0,0,0,78,95Z" transform="translate(-71.251 -90.25)" fill="#262e3c"/>
      <path id="Path_440" data-name="Path 440" d="M22.5,0H2A2,2,0,0,0,0,2V16a2,2,0,0,0,2,2H13.75v6a.5.5,0,0,0,.867.339L20.469,18H22.5a2,2,0,0,0,2-2V2A2,2,0,0,0,22.5,0Zm-5,4.75h3v1h-3Zm-4.75,0h4v1h-4ZM10.4,14.6l-1.2-1.2A4,4,0,0,1,2.75,10.25V7.75a4,4,0,1,1,8,0v2.5A3.979,3.979,0,0,1,9.908,12.7l1.2,1.2ZM21.75,13.25h-9v-1h9Zm0-2.5h-9v-1h9Zm0-2.5h-9v-1h9Z" fill="#262e3c"/>
    </g>
  </g>
</svg>
