<svg xmlns="http://www.w3.org/2000/svg" width="33.108" height="21.84" viewBox="0 0 33.108 21.84">
  <path id="cloud-upload-signal-svgrepo-com" d="M26.639,62.1a6.46,6.46,0,0,0-1.243.12A9.373,9.373,0,0,0,6.763,61.152,6.935,6.935,0,0,0,6.935,75.02h5.8a.794.794,0,1,0,0-1.589h-5.8a5.346,5.346,0,0,1,0-10.693c.145,0,.3.007.468.022l.8.07.056-.806a7.784,7.784,0,0,1,15.549.547c0,.2-.009.408-.029.645l-.1,1.268,1.185-.463a4.88,4.88,0,1,1,1.774,9.427l-4.286-.008-4.236-.008a.668.668,0,0,1-.768-.708V64.149l.862,1.024a.794.794,0,0,0,1.215-1.023l-1.91-2.269a1.225,1.225,0,0,0-1.9,0l-1.91,2.269a.794.794,0,1,0,1.215,1.023l.837-.994v8.552a2.254,2.254,0,0,0,2.357,2.288l4.233.008,4.289.009a6.469,6.469,0,1,0,0-12.938Z" transform="translate(0 -53.197)" fill="#000002" opacity="0.569"/>
</svg>
