<svg xmlns="http://www.w3.org/2000/svg" width="24.697" height="22.228" viewBox="0 0 24.697 22.228">
  <path id="donate-heart-svgrepo-com" d="M21.419,15.373l-4.6,3.68H10.644V17.818h5.02a.617.617,0,0,0,.514-.959l-1.1-1.645a2.464,2.464,0,0,0-2.054-1.1H3.235A1.235,1.235,0,0,0,2,15.349v7.409a2.47,2.47,0,0,0,2.47,2.47h11.9a3.705,3.705,0,0,0,2.789-1.265L26.7,15.349l-1.793-.6A3.7,3.7,0,0,0,21.419,15.373Zm1.892-6.952a3.246,3.246,0,0,0,0-4.49A3.022,3.022,0,0,0,21.133,3a4.687,4.687,0,0,0-3.08,1.588A4.687,4.687,0,0,0,14.973,3a3.025,3.025,0,0,0-2.178.93,3.246,3.246,0,0,0,0,4.49l5.258,5.694,5.258-5.693Z" transform="translate(-2 -3)" fill="#262e3c"/>
</svg>
