<svg xmlns="http://www.w3.org/2000/svg" width="13" height="13" viewBox="0 0 13 13">
  <path id="Path_250" data-name="Path 250" d="M11.991,7.095a.544.544,0,1,1,0-1.088h1.06A6.531,6.531,0,0,0,7.095.051v1.06a.544.544,0,1,1-1.088,0V.051A6.531,6.531,0,0,0,.051,6.007h1.06a.544.544,0,1,1,0,1.088H.051a6.531,6.531,0,0,0,5.956,5.956v-1.06a.544.544,0,1,1,1.088,0v1.06a6.531,6.531,0,0,0,5.956-5.956Zm-3.264,0H6.551A.544.544,0,0,1,6.1,6.853L3.922,3.589a.544.544,0,0,1,.905-.6L6.842,6.007H8.727a.544.544,0,0,1,0,1.088Z" transform="translate(-0.051 -0.051)" fill="#262e3c" opacity="0.828"/>
</svg>
