<svg xmlns="http://www.w3.org/2000/svg" width="19.444" height="17.984" viewBox="0 0 19.444 17.984">
  <g id="birthday-svgrepo-com" transform="translate(0 -16.499)">
    <path id="Path_419" data-name="Path 419" d="M44.273,83.718a.332.332,0,0,0,.332-.332V81.71c.043.045.089.1.142.164a1.144,1.144,0,0,0,1.971,0c.179-.217.274-.322.474-.322s.295.1.474.322a1.144,1.144,0,0,0,1.971,0c.179-.217.274-.322.474-.322s.295.1.474.322a1.144,1.144,0,0,0,1.971,0c.179-.217.274-.322.474-.322s.295.1.474.322a1.144,1.144,0,0,0,1.971,0c.179-.217.274-.322.474-.322s.295.1.474.322a1.144,1.144,0,0,0,1.971,0c.053-.064.1-.119.142-.164v1.213a.332.332,0,0,0,.663,0V80.378a1.3,1.3,0,0,0-1.3-1.3H55.754V76.488a.332.332,0,0,0-.332-.332H54.295a.332.332,0,0,0-.332.332v2.587H52.272V76.488a.332.332,0,0,0-.332-.332H50.812a.332.332,0,0,0-.332.332v2.587H48.789V76.488a.332.332,0,0,0-.332-.332H47.329a.332.332,0,0,0-.332.332v2.587H45.244a1.3,1.3,0,0,0-1.3,1.3v3.009A.332.332,0,0,0,44.273,83.718Zm10.354-6.9h.464v2.255h-.464Zm-3.483,0h.464v2.255h-.464Zm-3.483,0h.464v2.255h-.464Zm-2.418,2.919H57.9a.64.64,0,0,1,.639.639v.561a1.424,1.424,0,0,0-.654.513c-.179.217-.274.322-.474.322s-.295-.1-.474-.322a1.144,1.144,0,0,0-1.971,0c-.179.217-.274.322-.474.322s-.295-.1-.474-.322a1.144,1.144,0,0,0-1.971,0c-.179.217-.274.322-.474.322s-.295-.1-.474-.322a1.144,1.144,0,0,0-1.971,0c-.179.217-.274.322-.474.322s-.295-.1-.474-.322a1.144,1.144,0,0,0-1.971,0c-.179.217-.274.322-.474.322s-.295-.1-.474-.322a1.423,1.423,0,0,0-.654-.513v-.561A.64.64,0,0,1,45.244,79.738Z" transform="translate(-41.998 -57.019)"/>
    <path id="Path_420" data-name="Path 420" d="M164.942,304.145h-2.057a.332.332,0,0,0,0,.663h2.057a.332.332,0,1,0,0-.663Z" transform="translate(-155.365 -274.924)"/>
    <path id="Path_421" data-name="Path 421" d="M187.636,18.684a1.095,1.095,0,0,0,1.548-1.548l-.539-.539a.332.332,0,0,0-.469,0l-.539.539a1.1,1.1,0,0,0,0,1.548ZM188.1,17.6l.3-.3.3.3a.431.431,0,1,1-.61.61h0A.432.432,0,0,1,188.1,17.6Z" transform="translate(-179.031)"/>
    <path id="Path_422" data-name="Path 422" d="M108.89,18.684a1.095,1.095,0,0,0,1.548-1.548L109.9,16.6a.332.332,0,0,0-.469,0l-.539.539a1.1,1.1,0,0,0,0,1.548Zm.469-1.079.3-.3.3.3a.431.431,0,1,1-.61.61h0A.432.432,0,0,1,109.359,17.6Z" transform="translate(-103.768)"/>
    <path id="Path_423" data-name="Path 423" d="M266.382,18.684a1.095,1.095,0,0,0,1.548-1.548l-.539-.539a.332.332,0,0,0-.469,0l-.539.539a1.1,1.1,0,0,0,0,1.548Zm.469-1.079.3-.3.3.3a.431.431,0,1,1-.61.61h0A.432.432,0,0,1,266.851,17.6Z" transform="translate(-254.294)"/>
    <path id="Path_424" data-name="Path 424" d="M3.076,259.486H.663V256.1H5.97v.248a.332.332,0,0,0,.663,0v-2.37a.332.332,0,0,0-.332-.332H.332A.332.332,0,0,0,0,253.98v5.838a.332.332,0,0,0,.332.332H3.076a.332.332,0,1,0,0-.663Zm2.894-5.174v1.128H.663v-1.128Z" transform="translate(0 -226.661)"/>
    <path id="Path_425" data-name="Path 425" d="M240.816,245.051h-8.521a.332.332,0,0,0-.332.332v4.425a.332.332,0,0,0,.332.332h8.521a.332.332,0,0,0,.332-.332v-4.425A.332.332,0,0,0,240.816,245.051Zm-.332,1.707h-3.6v-1.044h3.6Zm-4.261-1.044v1.044h-3.6v-1.044Zm-3.6,1.707h3.6v2.055h-3.6Zm4.261,2.055v-2.055h3.6v2.055Z" transform="translate(-221.704 -218.444)"/>
    <path id="Path_426" data-name="Path 426" d="M93.887,333.826H89.128a.332.332,0,0,0-.332.332v3.287a.332.332,0,0,0,.332.332h4.759a.332.332,0,0,0,.332-.332v-3.287A.332.332,0,0,0,93.887,333.826Zm-.332,1.643H91.839v-.98h1.716Zm-2.379-.98v.98H89.459v-.98Zm-1.716,1.643h1.716v.98H89.459Zm2.379.98v-.98h1.716v.98Z" transform="translate(-84.869 -303.293)"/>
  </g>
</svg>