<svg xmlns="http://www.w3.org/2000/svg" width="27.284" height="22.914" viewBox="0 0 27.284 22.914">
  <path id="Path_484" data-name="Path 484" d="M26.79,33.295c-.463-.146-.939-.274-1.415-.4a2.85,2.85,0,0,0-1.988-3.917A3.918,3.918,0,0,0,22,28.832a2.917,2.917,0,0,0-1.29-2.061c.348-1.4-1.091-2.938-2.331-3.3a3.048,3.048,0,0,0-3.062.841,3.6,3.6,0,0,0-.276-.693,3.732,3.732,0,0,0-2.27-1.64C11,21.452,8.8,22.3,9.08,24.427a.3.3,0,0,0,.018.056c-.077.01-.154.016-.23.034a45.873,45.873,0,0,0-3.162-7.2c-.576-.931-2.5-2.694-3.377-1.055C1.6,17.628,3.4,19.926,4.086,20.932a16.62,16.62,0,0,0,3.678,4.2,2.28,2.28,0,0,0-.494,1.788,3.017,3.017,0,0,0-2.278-.61A2.42,2.42,0,0,0,3.1,29.384a3.3,3.3,0,0,0-1.554.535A2.552,2.552,0,0,0,.277,32.057a1.709,1.709,0,0,0,.77,1.321c-.148.05-.3.093-.447.144a.433.433,0,0,0-.3.346.384.384,0,0,0-.276.491c.329.972.953,2.563,1.873,3.1.5.291,1.447.006,1.975-.036,1.419-.113,2.839-.22,4.259-.311,5.383-.346,10.735-.283,15.92,1.36a.648.648,0,0,0,.815-.8A10.838,10.838,0,0,0,27.2,34.294.69.69,0,0,0,26.79,33.295ZM5.971,21.815a17.658,17.658,0,0,1-2.709-4.4c-.3-.833.245-1.177.976-.575a7.336,7.336,0,0,1,1.643,2.649c.643,1.4,1.046,2.934,1.65,4.36C6.981,23.193,6.472,22.486,5.971,21.815Zm15.357,8.018a.431.431,0,0,0,.555-.08,3.979,3.979,0,0,1,.878.027c1.706.258,1.957,1.476,1.719,2.882a42.884,42.884,0,0,0-5.5-.962c.01-.072.013-.143.016-.214a.23.23,0,0,0,.095-.084A3.468,3.468,0,0,1,21.328,29.833Zm-2.438.843a3.26,3.26,0,0,0-1.663-1.884.413.413,0,0,0,.028-.2,3.26,3.26,0,0,0-.118-.6,2.765,2.765,0,0,1,1.98-.792,1.979,1.979,0,0,1,.526.072.453.453,0,0,0,.544.262,2.845,2.845,0,0,1,.8,1.5A3.863,3.863,0,0,0,18.891,30.676Zm-2.752-2.487c-.046.1-.1.191-.135.293a3.2,3.2,0,0,0-3.026,1.747,4.159,4.159,0,0,0-1.915-1.763.249.249,0,0,0,.043-.1,2.487,2.487,0,0,1,2.6-1.894A2.514,2.514,0,0,1,16.138,28.188Zm-.261,1.125a2.319,2.319,0,0,1,1.551.646,2.88,2.88,0,0,1,.694,1.653,46.779,46.779,0,0,0-4.808-.189,2.856,2.856,0,0,0-.041-.343A2.641,2.641,0,0,1,15.877,29.314Zm2.035-4.855a2.079,2.079,0,0,1,1.3.854,1.8,1.8,0,0,1,.286.984l-.025-.005a3.163,3.163,0,0,0-2.674.945,3.423,3.423,0,0,0-1.446-1.271,1.96,1.96,0,0,0,.108-.6A2.489,2.489,0,0,1,17.912,24.459Zm-8.294-.032c.056-1.558,1.636-1.818,2.884-1.482a2.733,2.733,0,0,1,1.634,1.2,2.182,2.182,0,0,1,.143,1.478,3.533,3.533,0,0,0-2.431.41.432.432,0,0,0-.1-.431,3.235,3.235,0,0,0-2.137-1.137A.3.3,0,0,0,9.617,24.427ZM8.787,25.61c.773-.514,1.734.148,2.331.62a.483.483,0,0,0,.321.109,2.433,2.433,0,0,0-.281.307.371.371,0,0,0-.484-.154c-.066-.072-.131-.145-.2-.212a.326.326,0,0,0-.461.461,3.649,3.649,0,0,0,.649.753.432.432,0,0,0,.061.024,3.258,3.258,0,0,0-.1.37.381.381,0,0,0-.275-.28,1.342,1.342,0,0,1-.741-1.1.26.26,0,0,0-.519,0A1.866,1.866,0,0,0,9.7,28.057a3.807,3.807,0,0,0-.386-.048,3.546,3.546,0,0,0-1.011.105c-.046-.09-.1-.174-.16-.26A2.207,2.207,0,0,1,8.787,25.61ZM5.269,27.159a2.3,2.3,0,0,1,2.158,1.313,2.7,2.7,0,0,0-1.262,3.155c.065.228.443.191.424-.057A2.338,2.338,0,0,1,7.83,29.128a.405.405,0,0,0,.728-.247,3.765,3.765,0,0,1,.754-.075,3.386,3.386,0,0,1,2.168.837,3.052,3.052,0,0,1,.919,1.8,43.752,43.752,0,0,0-6.317.659,3.21,3.21,0,0,0-1.853-2.557A2.486,2.486,0,0,0,3.67,29.4C3.637,28.325,4.063,27.275,5.269,27.159ZM2.052,30.616a2.146,2.146,0,0,1,1.867-.288c.833.277,1.119,1.149,1.413,1.909q-1.719.345-3.354.839a1.452,1.452,0,0,1-.825-1.093A1.73,1.73,0,0,1,2.052,30.616ZM23.64,36.931a37.228,37.228,0,0,0-11.179-1.341c-2.02.017-4.038.169-6.05.332-1.126.091-2.252.2-3.377.3-1.09.1-1.645-.984-2.092-1.863,8.011-1.523,16.664-2.311,24.619-.008C24.955,35.246,24.235,36.041,23.64,36.931Z" transform="translate(0 -15.595)" fill="#262e3c"/>
</svg>