<svg xmlns="http://www.w3.org/2000/svg" width="25.875" height="25.688" viewBox="0 0 25.875 25.688">
  <g id="crop-health-svgrepo-com" transform="translate(-1.563 -1.563)">
    <rect id="Rectangle_229" data-name="Rectangle 229" width="7" height="2" transform="translate(2 25)" fill="#fcfcfc" stroke="#fcfcfc" stroke-width="0.5"/>
    <path id="Path_610" data-name="Path 610" d="M15.594,27.969a.906.906,0,0,1-.708-.34l-3.352-4.191H2V21.625h9.969a.906.906,0,0,1,.708.34l2.851,3.564,4.75-7.125a.906.906,0,0,1,1.479-.041L24.2,21.625h3.172v1.813H23.75a.905.905,0,0,1-.725-.362l-1.951-2.6-4.727,7.09a.9.9,0,0,1-.715.4Z" transform="translate(-0.188 -1.688)" fill="#fcfcfc" stroke="#fcfcfc" stroke-width="0.5"/>
    <path id="Path_611" data-name="Path 611" d="M10.156,14.688V10.156h.906a3.629,3.629,0,0,0,3.625-3.625V3.813H11.969a3.6,3.6,0,0,0-2.489,1A5.441,5.441,0,0,0,4.719,2H2V4.719a5.443,5.443,0,0,0,5.438,5.438h.906v4.531H2V16.5H14.688V14.688Zm1.813-9.062h.906v.906a1.814,1.814,0,0,1-1.812,1.813h-.906V7.438a1.814,1.814,0,0,1,1.813-1.812ZM7.438,8.344A3.629,3.629,0,0,1,3.813,4.719V3.813h.906A3.629,3.629,0,0,1,8.344,7.438v.906Z" transform="translate(-0.188 -0.188)" fill="#fcfcfc" stroke="#fcfcfc" stroke-width="0.5"/>
  </g>
</svg>