<svg xmlns="http://www.w3.org/2000/svg" width="44.75" height="26.25" viewBox="0 0 44.75 26.25">
  <g id="Group_114" data-name="Group 114" transform="translate(1742 5153.75)">
    <g id="bank-svgrepo-com" transform="translate(-1742 -5153.518)">
      <g id="Group_83" data-name="Group 83" transform="translate(0 0.184)">
        <path id="Path_399" data-name="Path 399" d="M24.534,24.435V19.6H20.26V5.057h-1.7V2.339H13.718V.184H12.135V2.339H7.291V5.057h-1.7V19.6H1.319v4.836H0v1.583H25.853V24.435Zm-6.073,0H16.878V9.344H15.363V24.435H13.78V9.344h-1.6V24.435H10.6V9.344H8.975V24.435H7.392V7.761H18.461Z" transform="translate(0 -0.184)"/>
      </g>
    </g>
    <g id="city-svgrepo-com" transform="translate(-1719 -5156)">
      <path id="Path_392" data-name="Path 392" d="M7,9.01,7.01,9" fill="none" stroke="#000" stroke-linecap="round" stroke-linejoin="round" stroke-width="1.5"/>
      <path id="Path_393" data-name="Path 393" d="M11,9.01,11.01,9" fill="none" stroke="#000" stroke-linecap="round" stroke-linejoin="round" stroke-width="1.5"/>
      <path id="Path_394" data-name="Path 394" d="M7,13.01,7.01,13" fill="none" stroke="#000" stroke-linecap="round" stroke-linejoin="round" stroke-width="1.5"/>
      <path id="Path_395" data-name="Path 395" d="M11,13.01,11.01,13" fill="none" stroke="#000" stroke-linecap="round" stroke-linejoin="round" stroke-width="1.5"/>
      <path id="Path_396" data-name="Path 396" d="M7,17.01,7.01,17" fill="none" stroke="#000" stroke-linecap="round" stroke-linejoin="round" stroke-width="1.5"/>
      <path id="Path_397" data-name="Path 397" d="M11,17.01,11.01,17" fill="none" stroke="#000" stroke-linecap="round" stroke-linejoin="round" stroke-width="1.5"/>
      <path id="Path_398" data-name="Path 398" d="M15,21H3.6a.6.6,0,0,1-.6-.6V5.6A.6.6,0,0,1,3.6,5H9V3.6A.6.6,0,0,1,9.6,3h4.8a.6.6,0,0,1,.6.6V9m0,12h5.4a.6.6,0,0,0,.6-.6V9.6a.6.6,0,0,0-.6-.6H15m0,12V17m0-8v4m0,0h2m-2,0v4m0,0h2" fill="none" stroke="#000" stroke-linecap="round" stroke-linejoin="round" stroke-width="1.5"/>
    </g>
  </g>
</svg>
