<svg id="menu-svgrepo-com-2" xmlns="http://www.w3.org/2000/svg" width="24.917" height="24.928" viewBox="0 0 24.917 24.928">
  <path id="Path_450" data-name="Path 450" d="M238.709,84.823a.922.922,0,0,0-.923-.923h-3.563a.922.922,0,0,0-.923.923v3.563a.922.922,0,0,0,.923.923h3.563a.922.922,0,0,0,.923-.923Z" transform="translate(-221.413 -79.623)" fill="#fcfcfc"/>
  <path id="Path_451" data-name="Path 451" d="M388.209,84.823a.922.922,0,0,0-.923-.923h-3.563a.922.922,0,0,0-.923.923v3.563a.922.922,0,0,0,.923.923h3.563a.922.922,0,0,0,.923-.923Z" transform="translate(-363.291 -79.623)" fill="#fcfcfc"/>
  <path id="Path_452" data-name="Path 452" d="M238.709,234.323a.922.922,0,0,0-.923-.923h-3.563a.922.922,0,0,0-.923.923v3.563a.922.922,0,0,0,.923.923h3.563a.922.922,0,0,0,.923-.923Z" transform="translate(-221.413 -221.502)" fill="#fcfcfc"/>
  <path id="Path_453" data-name="Path 453" d="M388.209,234.323a.922.922,0,0,0-.923-.923h-3.563a.922.922,0,0,0-.923.923v3.563a.922.922,0,0,0,.923.923h3.563a.922.922,0,0,0,.923-.923Z" transform="translate(-363.291 -221.502)" fill="#fcfcfc"/>
  <path id="Path_454" data-name="Path 454" d="M89.209,234.323a.922.922,0,0,0-.923-.923H84.723a.922.922,0,0,0-.923.923v3.563a.922.922,0,0,0,.923.923h3.563a.922.922,0,0,0,.923-.923Z" transform="translate(-79.534 -221.502)" fill="#fcfcfc"/>
  <path id="Path_455" data-name="Path 455" d="M237.786,382.9h-3.563a.922.922,0,0,0-.923.923v3.563a.922.922,0,0,0,.923.923h3.563a.922.922,0,0,0,.923-.923v-3.563A.922.922,0,0,0,237.786,382.9Z" transform="translate(-221.413 -363.381)" fill="#fcfcfc"/>
  <path id="Path_456" data-name="Path 456" d="M383.723,388.309h3.563a.922.922,0,0,0,.923-.923v-3.563a.922.922,0,0,0-.923-.923h-3.563a.922.922,0,0,0-.923.923v3.563A.922.922,0,0,0,383.723,388.309Z" transform="translate(-363.291 -363.381)" fill="#fcfcfc"/>
  <path id="Path_457" data-name="Path 457" d="M88.286,382.9H84.723a.922.922,0,0,0-.923.923v3.563a.922.922,0,0,0,.923.923h3.563a.922.922,0,0,0,.923-.923v-3.563A.922.922,0,0,0,88.286,382.9Z" transform="translate(-79.534 -363.381)" fill="#fcfcfc"/>
  <path id="Path_458" data-name="Path 458" d="M7.487,2.309V7.387H2.409V2.309H7.487M8.363,0H1.532A1.434,1.434,0,0,0,.1,1.432v7A1.264,1.264,0,0,0,1.364,9.7h7A1.434,1.434,0,0,0,9.8,8.263V1.432A1.434,1.434,0,0,0,8.363,0Z" transform="translate(-0.1)" fill="#fcfcfc"/>
</svg>