<svg xmlns="http://www.w3.org/2000/svg" width="21.2" height="22.049" viewBox="0 0 21.2 22.049">
  <g id="comment-o" transform="translate(0.6 0.6)">
    <path id="Shape" d="M5.222,23V18.381A9.088,9.088,0,0,1,3,12.444,9.734,9.734,0,0,1,13,3a9.734,9.734,0,0,1,10,9.444,9.734,9.734,0,0,1-10,9.444A10.391,10.391,0,0,1,7.742,20.48ZM13,19.667a7.515,7.515,0,0,0,7.778-7.222A7.515,7.515,0,0,0,13,5.222a7.515,7.515,0,0,0-7.778,7.222A7.515,7.515,0,0,0,13,19.667Z" transform="translate(-3 -3)" fill="none" stroke="#262e3c" stroke-width="1.2"/>
  </g>
</svg>
