<svg xmlns="http://www.w3.org/2000/svg" width="17" height="17" viewBox="0 0 17 17">
  <g id="web-app" transform="translate(-3 -3)">
    <g id="comment-o" transform="translate(3 3)">
      <path id="Shape" d="M4.889,20V16.074A7.725,7.725,0,0,1,3,11.028,8.274,8.274,0,0,1,11.5,3,8.274,8.274,0,0,1,20,11.028a8.274,8.274,0,0,1-8.5,8.028,8.833,8.833,0,0,1-4.469-1.2ZM11.5,17.167a6.388,6.388,0,0,0,6.611-6.139A6.388,6.388,0,0,0,11.5,4.889a6.388,6.388,0,0,0-6.611,6.139A6.388,6.388,0,0,0,11.5,17.167Z" transform="translate(-3 -3)"/>
    </g>
  </g>
</svg>
