<svg xmlns="http://www.w3.org/2000/svg" width="23.545" height="23.545" viewBox="0 0 23.545 23.545">
  <path id="smile-svgrepo-com" d="M13.773,2A11.773,11.773,0,1,0,25.545,13.773,11.807,11.807,0,0,0,13.773,2Zm3.364,7.568a2.478,2.478,0,0,1,2.523,2.523.841.841,0,1,1-1.682,0,.841.841,0,0,0-1.682,0,.841.841,0,1,1-1.682,0A2.478,2.478,0,0,1,17.136,9.568Zm-6.727,0a2.478,2.478,0,0,1,2.523,2.523.841.841,0,1,1-1.682,0,.841.841,0,0,0-1.682,0,.794.794,0,0,1-.841.841.794.794,0,0,1-.841-.841A2.478,2.478,0,0,1,10.409,9.568Zm3.364,11.773a6.747,6.747,0,0,1-6.727-6.727v-.252a1,1,0,0,1,.42-.757.64.64,0,0,1,.757-.084,14.507,14.507,0,0,0,5.55,1.009,14.507,14.507,0,0,0,5.55-1.009.817.817,0,0,1,.757.084,1.156,1.156,0,0,1,.42.673v.336A6.747,6.747,0,0,1,13.773,21.341Z" transform="translate(-2 -2)" fill="#262e3c"/>
</svg>