<svg id="Group_167" data-name="Group 167" xmlns="http://www.w3.org/2000/svg" width="24.793" height="16.992" viewBox="0 0 24.793 16.992">
  <path id="Path_495" data-name="Path 495" d="M60.248,262.818H51.921a.316.316,0,1,0,0,.632h8.327a.316.316,0,1,0,0-.632Z" transform="translate(-48.889 -252.887)" fill="#262e3c"/>
  <path id="Path_496" data-name="Path 496" d="M63.525,223.15h-11.6a.316.316,0,1,0,0,.632h11.6a.316.316,0,1,0,0-.632Z" transform="translate(-48.889 -215.306)" fill="#262e3c"/>
  <path id="Path_497" data-name="Path 497" d="M55.921,291.276h-4a.316.316,0,1,0,0,.632h4a.316.316,0,0,0,0-.632Z" transform="translate(-48.889 -279.847)" fill="#262e3c"/>
  <path id="Path_498" data-name="Path 498" d="M24.443,76.085l-.811-.811h0l-.811-.811a1.2,1.2,0,0,0-1.694,0L17.794,77.8h-16A1.8,1.8,0,0,0,0,79.593v9.718a1.8,1.8,0,0,0,1.795,1.795H18.454a1.8,1.8,0,0,0,1.795-1.795v-7.4a1.2,1.2,0,0,0,.26-.2l3.934-3.934A1.2,1.2,0,0,0,24.443,76.085ZM21.575,74.91a.569.569,0,0,1,.8,0l.587.587-4.735,4.734-.587-.587a.569.569,0,0,1,0-.8Zm-4.659,4.97L18.9,81.866l-2.334.357h-.01s0-.006,0-.01Zm1.538,10.594H1.795A1.165,1.165,0,0,1,.632,89.311V79.593A1.165,1.165,0,0,1,1.795,78.43H17.166a1.185,1.185,0,0,0-.314.685l-.036,0a.515.515,0,0,0-.5.492l-.385,2.515a.644.644,0,0,0,.139.526.616.616,0,0,0,.477.211.753.753,0,0,0,.113-.009l2.515-.385a.569.569,0,0,0,.439-.283v7.131A1.165,1.165,0,0,1,18.454,90.474ZM24,77.332l-3.934,3.934a.569.569,0,0,1-.8,0l-.587-.587,4.734-4.734.587.587A.567.567,0,0,1,24,77.332Z" transform="translate(0 -74.114)" fill="#262e3c"/>
</svg>