<svg xmlns="http://www.w3.org/2000/svg" width="375.928" height="284.211" viewBox="0 0 375.928 284.211">
  <g id="Group_14" data-name="Group 14" transform="translate(0 0)">
    <path id="Path_2996" data-name="Path 2996" d="M692.329,375.125a5.679,5.679,0,0,1-6.487-5.805l-18.831-7.237,8.526-6.1,16.575,7.807a5.708,5.708,0,0,1,.216,11.334Z" transform="translate(-447.243 -258.499)" fill="#ffb7b7"/>
    <path id="Path_2997" data-name="Path 2997" d="M628.581,326.63l2.94-10.371-.145-.1-27.541-18.709-23.808-23.888L566.159,279.1l.911,4.39.06.054L598.783,311.9l.029.014Z" transform="translate(-394.256 -215.195)" fill="#e6e7e8"/>
    <path id="Path_201" data-name="Path 201" d="M387.093,249.142l-42.624-5.975,3.752-26.154H379.6Z" transform="translate(-180.982 -114.017)" fill="#ffb6b6"/>
    <path id="Path_202" data-name="Path 202" d="M281.679,517.219l8.744,2.032,12-32.758-12.9-3Z" transform="translate(-147.993 -254.026)" fill="#ffb6b6"/>
    <path id="Path_203" data-name="Path 203" d="M468.495,711.849l6.27,1.457,2.495-5.66,1.491,6.586,16.63,3.865a3.838,3.838,0,0,0,3.708-6.321L487.94,699.517l1.391-5.985-14.162-2.412Z" transform="translate(-342.944 -434.578)" fill="#2f2e41"/>
    <path id="Path_204" data-name="Path 204" d="M395.352,526.49h8.976l4.272-34.623H395.352Z" transform="translate(-207.716 -258.424)" fill="#ffb6b6"/>
    <path id="Path_205" data-name="Path 205" d="M589.326,723.2h6.437l1.149-6.078,2.943,6.078h17.073a3.838,3.838,0,0,0,2.181-7l-13.634-9.416v-6.144l-14.341.856Z" transform="translate(-406.428 -439.582)" fill="#2f2e41"/>
    <path id="Path_206" data-name="Path 206" d="M519.26,409.681l41.684-3.316c12.3,28.734,4.479,74.6-4.974,126.24l-13.407,1.734-1.04-82.974-33.61,77.19-13.974-.714Z" transform="translate(-356.312 -284.969)" fill="#2f2e41"/>
    <path id="Path_3002" data-name="Path 3002" d="M554.586,217.4v-14.1a18.9,18.9,0,0,0-37.794,0c-3.331,6.94-1.247,10.24,0,14.1a2.542,2.542,0,0,0,2.537,2.537h32.718a2.542,2.542,0,0,0,2.539-2.537Z" transform="translate(-367.375 -168.348)" fill="#2f2e41"/>
    <circle id="Ellipse_572" data-name="Ellipse 572" cx="13.855" cy="13.855" r="13.855" transform="translate(159.124 23.663)" fill="#ffb7b7"/>
    <path id="Path_3003" data-name="Path 3003" d="M571.616,210.041a14.965,14.965,0,0,0-14.948-14.948h-2.821A14.965,14.965,0,0,0,538.9,210.041v.282c2.112,1.444,4.118,1.655,5.961,0l2.033-5.693.407,5.693h3.081l1.027-2.872.205,2.872c4.161,3.544,12.03,1.846,20,0Z" transform="translate(-379.934 -173.968)" fill="#2f2e41"/>
    <path id="Path_3004" data-name="Path 3004" d="M530.675,323.878l35.275-1.342,1.972-23.077c1.521-4.224,1.545-7.853.073-10.78a10.79,10.79,0,0,0-5.957-5.149l-7.719-9.323a10.506,10.506,0,0,0-8.155-3.8l-20.056.137c-.483-.291-3.416-1.781-9.2.725-6.272,2.719-4.816,12.163-4.8,12.258l.014.089.069.06,13.34,11.236Z" transform="translate(-365.775 -213.239)" fill="#e6e7e8"/>
    <path id="Path_2960" data-name="Path 2960" d="M204.549,748.108H558.738a.592.592,0,0,0,0-1.184H204.549a.592.592,0,1,0,0,1.184Z" transform="translate(-203.957 -463.897)" fill="#ccc"/>
    <path id="Path_207" data-name="Path 207" d="M629.358,394.54a53.847,53.847,0,1,1-3.409-18.961c.117.316.232.632.343.952v0q.746,2.105,1.313,4.289A54.212,54.212,0,0,1,629.358,394.54Z" transform="translate(-370.875 -250.405)" fill="#3f3d56"/>
    <path id="Path_208" data-name="Path 208" d="M598.292,374.79a18.188,18.188,0,0,0-15.968-.653A8.613,8.613,0,0,0,577,380c3.012-1.778,6.911,1.031,7.686,5.537l-.181.05a11.02,11.02,0,0,0,2.274,8.454,5.946,5.946,0,0,1,2.854-4.233c1.3-.855,2.738-1.475,3.73-2.944,1.176-1.741,1.475-4.286,1.942-6.608S596.656,375.437,598.292,374.79Z" transform="translate(-399.95 -267.229)" fill="#6c63ff"/>
    <path id="Path_209" data-name="Path 209" d="M554.621,399.919a19.193,19.193,0,0,1-2.948,3.018,6.787,6.787,0,0,0-2.144,4.008c-.126,1.09.069,2.2.042,3.3s-.394,2.343-1.144,2.617c-1.184.428-2.087-1.771-3.3-1.924-.967-.12-1.837,1.4-1.557,2.72s1.6,1.9,2.352,1.042c.684,1.147.2,3.229-.825,3.581-.108.723-.217,1.443-.322,2.165a35.616,35.616,0,0,1-7.427-6.321,19.187,19.187,0,0,1-4.373-10.336c-.286-3.057.139-6.553-1.265-8.905a4.829,4.829,0,0,0-4.786-2.18c-.316.021-.635.057-.952.1a53.617,53.617,0,0,1,3.882-8.884,3.805,3.805,0,0,0,.973-.605c1.614-1.37,2.331-4.144,3.641-6.062q.127-.185.262-.361a12.483,12.483,0,0,1,4.87-3.487c3.84-1.864,7.791-3.753,11.845-3.493l-1.153.111q-2.019,5.656-4.042,11.312-.307.867-.62,1.738a17.88,17.88,0,0,0-1.437,6.827c.069,1.421.563,2.939,1.5,3.427.876.452,1.834-.1,2.68-.651.358-.229.714-.458,1.072-.69,1.286-.828,2.71-1.677,4.069-1.123,1.244.506,2.162,2.2,2.337,4.018A8.032,8.032,0,0,1,554.621,399.919Z" transform="translate(-373.14 -265.801)" fill="#6c63ff"/>
    <path id="Path_210" data-name="Path 210" d="M586.73,479.55l-11.267-6.937.064-.164c-2.335.889-3.3,5.04-2.919,8.435s1.695,6.429,2.356,9.737a25.844,25.844,0,0,1-.974,13.561A111.066,111.066,0,0,0,587.035,486.2a9.617,9.617,0,0,0,1.18-2.617,4.162,4.162,0,0,0-.276-2.961A3.3,3.3,0,0,0,586.73,479.55Z" transform="translate(-397.601 -319.689)" fill="#6c63ff"/>
    <path id="Path_211" data-name="Path 211" d="M570.793,395.512a4.153,4.153,0,0,0-.19,3.02,3.348,3.348,0,0,0,1.87,1.732l2.075,1.029a2.679,2.679,0,0,0,2.138.406,2.852,2.852,0,0,0,1.285-2.906,5.172,5.172,0,0,0-1.757-2.989L573,392.571l-.6.74A8.073,8.073,0,0,0,570.793,395.512Z" transform="translate(-396.487 -277.722)" fill="#6c63ff"/>
    <path id="Path_212" data-name="Path 212" d="M672.617,402.57l2.8.66c-.163,3.153-1.726,6.071-3.822,7.129a7.134,7.134,0,0,0-2.569,1.424,7.815,7.815,0,0,0-1.289,3.021l-1.6,5.818c-.572,2.09-1.307,4.412-2.795,5.165-1.277.647-2.738-.145-3.719-1.473a17.723,17.723,0,0,1-2.162-4.855,5,5,0,0,1-2.1,4.418,2.738,2.738,0,0,1-3.614-1.409c-.6-1.057-.852-2.451-1.443-3.524s-1.828-1.686-2.473-.681a9.145,9.145,0,0,0-.581,2.542,2.76,2.76,0,0,1-2.307,2.22,3.847,3.847,0,0,1-2.762-1.262,12.51,12.51,0,0,1-3.43-6.918,8.253,8.253,0,0,1,.1-3.783c.37-1.172,1.265-2.075,2.153-1.852.584-1.235-.569-2.873-1.608-2.729s-1.858,1.262-2.714,2.12-2.045,1.482-2.9.629a1.178,1.178,0,0,1-1.1,1.248q-.046,0-.093,0a4.271,4.271,0,0,1-1.557-.825c-1.967-1.226-4.463-.413-5.861,1.906.873-3.716,2.153-7.981,4.837-8.854,1.1-.358,2.292-.063,3.328-.684,1.834-1.1,2.2-5.252.62-6.966.2,1.62.163,3.512-.693,4.62a1.466,1.466,0,0,1-2.542-1.253,1.1,1.1,0,0,1-2.042.434,3.946,3.946,0,0,1-.117-3.322,7.821,7.821,0,0,1,1.756-2.494A21.527,21.527,0,0,1,634.854,389a5.145,5.145,0,0,1,5.237-.331c.876.506,1.647,1.349,2.542,1.795a1.884,1.884,0,0,0,2.594-.607l.029-.049c.666-1.168.352-2.9.6-4.364.443-2.581,3.024-3.789,4.454-2.084-1.069-.274-2.174.991-2.307,2.524a3.641,3.641,0,0,0,1.674,3.545c1.741.771,3.445-1.169,4.761-2.963q2.06-2.819,4.126-5.635a6.8,6.8,0,0,1,.738-.9,2.374,2.374,0,0,1,3.244-.066c1.391,1.135,2.045,3.463,3.186,5.066,1.656,2.328,4.135,2.894,6.442,3.346q2.579.5,5.162,1.009a53.494,53.494,0,0,1,3,6.617,18.135,18.135,0,0,0-7.716,6.671Z" transform="translate(-425.259 -270.725)" fill="#6c63ff"/>
    <path id="Path_213" data-name="Path 213" d="M742.791,420.625a10.856,10.856,0,0,0-.572,3.225c-1.476-1.8-1.711-5.177-.741-7.514Q742.223,418.442,742.791,420.625Z" transform="translate(-486.061 -290.208)" fill="#6c63ff"/>
    <path id="Path_214" data-name="Path 214" d="M723.106,501.358a54.005,54.005,0,0,1-4.487,7.508c-1.084-.464-2.25.364-3.265,1.141-1.06.813-2.334,1.605-3.421.864-1.111-.759-1.47-2.882-1.117-4.566a12.165,12.165,0,0,1,2.084-4.289c.9-1.349,1.87-2.75,3.126-3.274a2.437,2.437,0,0,1,3.244,2.006l.891-.03c-.5-.687-.238-2.108.434-2.358.774-.292,1.446.771,1.9,1.711C722.7,500.5,722.91,500.925,723.106,501.358Z" transform="translate(-470.189 -333.278)" fill="#6c63ff"/>
    <path id="Path_215" data-name="Path 215" d="M639.891,461.674c-1.916.12-3.434-2.238-4.442-4.559s-1.929-4.974-3.658-6.155a10.684,10.684,0,0,0-3.186-1.095,3.945,3.945,0,0,1-2.705-2.382l-1.215-.491a18.256,18.256,0,0,0-4.615,3.29,10.314,10.314,0,0,0-2.75,6.012c-.232,2.433.625,5.146,2.227,6.06,1.266.722,2.74.267,4.022.928,1.6.826,2.553,3.225,2.913,5.594s.269,4.831.526,7.227.967,4.889,2.437,6.117c1.838,1.537,4.536.26,5.361-2.537.4-1.372.391-2.92.693-4.344.533-2.508,1.971-4.369,3.112-6.426S640.65,464.062,639.891,461.674Z" transform="translate(-421.116 -306.314)" fill="#6c63ff"/>
    <path id="Path_216" data-name="Path 216" d="M624.706,421.389a5.114,5.114,0,0,1,.5.53,1.74,1.74,0,0,1-.031,1.8,1.672,1.672,0,0,0,1.2-.609,7.7,7.7,0,0,0,.918-1.293,1.409,1.409,0,0,0,.271-1.128c-.091-.258-.3-.368-.455-.563a3.824,3.824,0,0,1-.42-1.22,2.2,2.2,0,0,0-1.594-1.68l.1.018a.911.911,0,0,0-.427.97c.058.376.3.688.276,1.071-.035.551-.585.81-.619,1.361A1.052,1.052,0,0,0,624.706,421.389Z" transform="translate(-424.864 -290.674)" fill="#6c63ff"/>
    <path id="Path_217" data-name="Path 217" d="M618.108,406.071l.009,0a1.548,1.548,0,0,0,.164-.174Z" transform="translate(-421.55 -284.722)" fill="#6c63ff"/>
    <path id="Path_218" data-name="Path 218" d="M615.969,408.83a1.671,1.671,0,0,0,.52-1.656c-.139-.627-.632-1.048-1.086-.932a1.107,1.107,0,0,1-1.029.3c-.281-.072-.589-.259-.833-.047a1.26,1.26,0,0,0-.284.554l-.271.831a.524.524,0,0,0-.032.315.267.267,0,0,0,.2.163l1.623.479A1.4,1.4,0,0,0,615.969,408.83Z" transform="translate(-418.836 -284.894)" fill="#6c63ff"/>
    <path id="Path_219" data-name="Path 219" d="M702.085,484.013l-.75-1.229a4.1,4.1,0,0,0-.989-1.242.876.876,0,0,0-1.234.109l-.013.016.03.234a5.282,5.282,0,0,1,1.318,2.572c.057.419.037.852.087,1.272a1.484,1.484,0,0,0,.463,1.038c.394.263.856-.125,1.137-.6a2.06,2.06,0,0,0,.319-1.311,2.3,2.3,0,0,0-.368-.86Z" transform="translate(-464.102 -324.36)" fill="#6c63ff"/>
    <path id="Path_220" data-name="Path 220" d="M711.4,482.885a2.834,2.834,0,0,0-.092-1.143,2.51,2.51,0,0,1,.382-1.423,4.626,4.626,0,0,0,.6-1.3,1.091,1.091,0,0,0-.029-.639c-.083-.186-.283-.271-.4-.124l.246.159a2.242,2.242,0,0,0-1,.048,1.236,1.236,0,0,0-.757.853,5.285,5.285,0,0,1-.2.886c-.147.3-.431.4-.61.667a1.6,1.6,0,0,0,.025,1.515,1.769,1.769,0,0,0,1,.787C710.869,483.274,711.265,483.28,711.4,482.885Z" transform="translate(-469.495 -322.698)" fill="#6c63ff"/>
    <path id="Path_221" data-name="Path 221" d="M725.709,489.856a3.432,3.432,0,0,0,.433.795c.334.337.789.13,1.195.048a2.066,2.066,0,0,1,1.966.788,5,5,0,0,0-2.877-3.59,8.454,8.454,0,0,0-2.959-.463l-.172.044C723.732,488.753,725.107,488.725,725.709,489.856Z" transform="translate(-476.814 -327.561)" fill="#6c63ff"/>
    <path id="Path_222" data-name="Path 222" d="M666.024,497.932l0,.006.05-.1Z" transform="translate(-446.725 -333.03)" fill="#6c63ff"/>
    <path id="Path_223" data-name="Path 223" d="M662.619,500.091a9.417,9.417,0,0,0-.595,1.306,11.367,11.367,0,0,0-.431,2.235c-.054.431-.07.981.2,1.191a.383.383,0,0,0,.5-.068,1.981,1.981,0,0,0,.363-.54,12.434,12.434,0,0,0,1.226-2.909,5.062,5.062,0,0,0-.2-3.262Z" transform="translate(-444.38 -333.137)" fill="#6c63ff"/>
    <path id="Path_224" data-name="Path 224" d="M641.6,382.334a1.207,1.207,0,0,0,1.3.254,4.294,4.294,0,0,0,1.224-.808,2.879,2.879,0,0,0,.742-.809,1.641,1.641,0,0,0,.152-1.25,1.27,1.27,0,0,0-.968-.766l-1.8-.534.434-.392c-.447-.24-.942.205-1.221.757a4.073,4.073,0,0,0-.371,1.141,2.929,2.929,0,0,0,.509,2.408Z" transform="translate(-433.585 -270.046)" fill="#6c63ff"/>
    <path id="Path_225" data-name="Path 225" d="M664.142,376.9a.992.992,0,0,0,1.352.11,1.511,1.511,0,0,0,.6-1.077c.042-.472-.191-1-.525-1.038l.076-.442c-.643-.116-1.434-.139-1.778.641A1.833,1.833,0,0,0,664.142,376.9Z" transform="translate(-445.526 -268.169)" fill="#6c63ff"/>
    <path id="Path_3011" data-name="Path 3011" d="M524.323,448.652a5.679,5.679,0,0,1,.3-8.7l-6.514-19.093,10.149,2.636,4.625,17.726a5.708,5.708,0,0,1-8.561,7.43Z" transform="translate(-369.01 -292.585)" fill="#ffb7b7"/>
    <path id="Path_3012" data-name="Path 3012" d="M516.45,368.243l9.847-4.388-3.308-33.306,3.081-33.585-13.147-7.1-2.786,3.512v.08l-1.476,42.469.008.032Z" transform="translate(-364.047 -223.762)" fill="#e6e7e8"/>
    <path id="Path_226" data-name="Path 226" d="M547.9,394.313q-8.352-3.84-18.017-9.05c-33.327-17.966-74.308-45.994-115.4-78.919s-77.371-66.815-102.168-95.426c-12.079-13.937-20.78-25.873-25.861-35.476-5.379-10.167-6.464-17.371-3.225-21.413,6.31-7.874,26.86-.782,42.989,6.555l-.589,1.3c-22.148-10.075-36.812-12.547-41.288-6.96-5.7,7.115,4.887,27.186,29.05,55.067,24.743,28.548,60.961,62.374,101.983,95.247s81.928,60.85,115.181,78.777c32.475,17.508,54.371,23.469,60.073,16.353,4.734-5.908-1.723-20.787-18.182-41.9l1.123-.875c11.959,15.339,24.82,35.366,18.171,43.663-3.239,4.042-10.507,4.553-21.6,1.518A148.724,148.724,0,0,1,547.9,394.313Z" transform="translate(-244.654 -150.582)" fill="#6c63ff"/>
    <path id="Path_227" data-name="Path 227" d="M295.608,380.095c-15.35-7.059-29.379-14.148-41.666-21.085-16.06-9.069-28.265-17.388-36.277-24.725-8.482-7.769-11.925-14.19-10.232-19.086,3.3-9.536,25.036-9.761,42.692-8.27l-.12,1.419c-24.246-2.048-38.887.55-41.227,7.316-2.98,8.617,13.737,23.964,45.863,42.1,32.9,18.575,78.373,38.267,128.056,55.445s97.61,29.786,134.953,35.5c36.47,5.579,59.1,3.836,62.076-4.781,2.474-7.155-8.608-19-31.2-33.352l.763-1.2c16.418,10.429,35.26,24.97,31.785,35.02-1.693,4.9-8.366,7.819-19.836,8.688-10.833.822-25.57-.176-43.8-2.965-37.426-5.724-85.442-18.354-135.2-35.56C351.017,403.766,321.447,391.977,295.608,380.095Z" transform="translate(-205.564 -232.367)" fill="#6c63ff"/>
    <circle id="Ellipse_31" data-name="Ellipse 31" cx="8.298" cy="8.298" r="8.298" transform="translate(105.036 58.67)" fill="#e6e6e6"/>
    <circle id="Ellipse_32" data-name="Ellipse 32" cx="5.079" cy="5.079" r="5.079" transform="translate(271.806 166.383)" fill="#ff6584"/>
    <circle id="Ellipse_33" data-name="Ellipse 33" cx="8.298" cy="8.298" r="8.298" transform="translate(20.168 204.533)" fill="#e6e6e6"/>
  </g>
</svg>
