<svg xmlns="http://www.w3.org/2000/svg" width="321.776" height="304.93" viewBox="0 0 321.776 304.93">
  <g id="Group_11" data-name="Group 11" transform="translate(0.043 0.009)">
    <path id="Path_176" data-name="Path 176" d="M395.251,203.922a58.063,58.063,0,0,1-24.9,47.707,57.362,57.362,0,0,1-6.791,4.085c-.782.4-1.569.782-2.37,1.143-.722.331-1.448.642-2.185.937a58.348,58.348,0,0,1-28.853,3.849q-2.541-.3-5.017-.827l-.215-.045a56.793,56.793,0,0,1-10.1-3.142,58.142,58.142,0,1,1,80.434-53.706Z" transform="translate(-279 -145.79)" fill="#f1f1f1"/>
    <path id="Path_177" data-name="Path 177" d="M387.633,235.027c-.05-.06-.105-.115-.16-.17a16.761,16.761,0,0,0-23.575-.241c-.035.03-.065.06-.1.09s-.075.07-.11.105a16.753,16.753,0,0,0-4.921,11.868V257.2a2.259,2.259,0,0,0,2.255,2.255h29.068a2.259,2.259,0,0,0,2.255-2.255V246.679a16.713,16.713,0,0,0-4.716-11.652Z" transform="translate(-318.813 -187.745)" fill="#2f2e41"/>
    <circle id="Ellipse_25" data-name="Ellipse 25" cx="12.309" cy="12.309" r="12.309" transform="translate(45.111 46.991)" fill="#ffb7b7"/>
    <path id="Path_178" data-name="Path 178" d="M393.261,248.364l-1.453-10.154a1.271,1.271,0,0,0-.446-.8,1.315,1.315,0,0,0-.266-.165,25.417,25.417,0,0,0-22.432-.01,1.226,1.226,0,0,0-.276.175c-.03.025-.06.055-.09.085a1.269,1.269,0,0,0-.351.757l-.972,10.169a1.256,1.256,0,0,0,.321.962,1.242,1.242,0,0,0,.722.391.919.919,0,0,0,.206.02h2.466a1.264,1.264,0,0,0,1.138-.722l1.067-2.285a.749.749,0,0,1,1.423.226l.21,1.684a1.259,1.259,0,0,0,1.243,1.1h16.253a1.2,1.2,0,0,0,.606-.16,1.269,1.269,0,0,0,.341-.271,1.256,1.256,0,0,0,.291-1Z" transform="translate(-322.903 -190.112)" fill="#2f2e41"/>
    <path id="Path_179" data-name="Path 179" d="M443.71,328.108l3.488,11.677a57.352,57.352,0,0,1-6.791,4.085c-.782.4-1.569.782-2.37,1.143l-3.614-15.491-1.4-6.009,9.021-1Z" transform="translate(-355.85 -233.947)" fill="#ffb7b7"/>
    <path id="Path_180" data-name="Path 180" d="M361.04,329.81l-.3,15.777-.13,6.981a56.792,56.792,0,0,1-10.1-3.142l1.2-14.945.3-3.769Z" transform="translate(-314.692 -237.588)" fill="#ffb7b7"/>
    <path id="Path_181" data-name="Path 181" d="M401.435,317.208l-9.061,1.358.11,1.488,1.092,15a58.347,58.347,0,0,1-28.853,3.849q-2.541-.3-5.017-.827c.742-3.117,1.383-5.924.591-6.475a6.011,6.011,0,0,1-.677-.551c-3.694-3.523-2.33-11.477-2.33-11.477l-6.7.371-2.32.13s1-16.038,5.513-16.038H359.3l26.562-2.506s7.518-2.506,9.522,1c1.052,1.839,2.927,5.738,4.476,9.036,1.4,3,2.541,5.5,2.541,5.5Z" transform="translate(-313.575 -223.047)" fill="#2f2e41"/>
    <path id="Path_182" data-name="Path 182" d="M805.265,204.566a58.06,58.06,0,0,1-24.5,46.786l-.4.281c-.14.1-.286.2-.431.3q-1.263.872-2.576,1.669-1.849,1.128-3.784,2.12l-.125.06q-1.112.571-2.245,1.083l-.07.03c-.175.08-.361.165-.541.241-1.4.621-2.827,1.188-4.28,1.689q-1.857.654-3.769,1.173a57,57,0,0,1-7.944,1.594,57.933,57.933,0,0,1-6.9.471c-.191.005-.381.005-.571.005-1.258,0-2.511-.04-3.749-.12-1.083-.07-2.155-.165-3.218-.3-1.639-.2-3.258-.456-4.851-.8-.07-.01-.14-.025-.21-.04-.055-.01-.115-.025-.17-.035-1.6-.336-3.183-.747-4.731-1.218q-2.188-.662-4.3-1.493c-.361-.14-.716-.281-1.073-.431-.887-.371-1.764-.757-2.626-1.173-.251-.115-.5-.236-.742-.356-.832-.406-1.654-.832-2.456-1.283q-1.451-.8-2.852-1.689c-1.178-.742-2.331-1.524-3.448-2.351a58.138,58.138,0,1,1,92.554-46.215Z" transform="translate(-483.536 -145.794)" fill="#f1f1f1"/>
    <path id="Path_183" data-name="Path 183" d="M775.951,340.546c-1.6-.336-3.183-.747-4.731-1.218l5.317-32.972,5.508-.17,9.988-.316,5.122-.16s3.633,15.967,6.4,34.055a56.988,56.988,0,0,1-7.944,1.594,57.932,57.932,0,0,1-6.9.471c-.191.005-.381.005-.571.005-1.258,0-2.511-.04-3.749-.12-1.083-.07-2.155-.165-3.218-.3-1.639-.2-3.258-.456-4.851-.8-.07-.01-.14-.025-.21-.04C776.067,340.571,776.006,340.556,775.951,340.546Z" transform="translate(-524.553 -225.566)" fill="#cbcbcb"/>
    <path id="Path_184" data-name="Path 184" d="M767.2,340.3c-.07-.01-.14-.025-.21-.04-.055-.01-.115-.025-.17-.035-1.6-.336-3.183-.747-4.731-1.218q-2.188-.662-4.3-1.494c-.361-.14-.716-.281-1.073-.431-.887-.371-1.764-.757-2.626-1.173-.251-.115-.5-.236-.742-.356l-.441-24.688,13.532-5.8s.045.361,6.47.8C774.135,309.856,767.2,340.3,767.2,340.3Z" transform="translate(-515.42 -225.247)" fill="#2f2e41"/>
    <path id="Path_185" data-name="Path 185" d="M833.831,308.419l-2.551,13.406.24,12.123q-1.112.571-2.245,1.083l-.07.03c-.175.08-.361.165-.541.241-1.4.621-2.827,1.188-4.28,1.689q-1.857.654-3.769,1.173a57,57,0,0,1-7.944,1.594,57.933,57.933,0,0,1-6.9.471l-.266-21.485c-.561-6.926,1.3-11.507,3.578-14.474,12.154-1.624,11.883-1.769,11.883-1.769l12.885,5.8Z" transform="translate(-541.607 -223.965)" fill="#2f2e41"/>
    <path id="Path_186" data-name="Path 186" d="M753.865,318.574l-.917,24.713c-.361-.14-.716-.281-1.073-.431-.887-.371-1.764-.757-2.626-1.173-.251-.115-.5-.236-.742-.356-.832-.406-1.654-.832-2.456-1.283q-1.451-.8-2.852-1.689l4.866-21.716Z" transform="translate(-510.576 -231.018)" fill="#2f2e41"/>
    <path id="Path_187" data-name="Path 187" d="M861.61,335.329l-.4.281c-.14.1-.286.2-.431.3q-1.263.872-2.576,1.669-1.849,1.128-3.784,2.12l-.125.06q-1.146.589-2.314,1.113h0l-.917-24.8,5.543-1.844.255-.085Z" transform="translate(-564.379 -229.771)" fill="#2f2e41"/>
    <ellipse id="Ellipse_26" data-name="Ellipse 26" cx="14.335" cy="14.298" rx="14.335" ry="14.298" transform="translate(245.956 67.215) rotate(-73.66)" fill="#9f616a"/>
    <path id="Path_188" data-name="Path 188" d="M774.628,246.776V241.2s-4.5-5.3.45-6.633c0,0,1.35-13.347,13.047-7.118,0,0,16.2-2.669,14.4,6.674,0,0,4.049-2.439,2.7,3.79l-2.61,10.033s1.261-6.628-2.788-7.518l-2.249-1.335s-6.3,6.229-15.746-1.335c0,0-4.049-.966-3.6,3.038S774.628,246.776,774.628,246.776Z" transform="translate(-525.319 -185.7)" fill="#2f2e41"/>
    <path id="Path_189" data-name="Path 189" d="M600.256,553.921a58.063,58.063,0,0,1-24.9,47.707c-.14.1-.286.2-.431.3q-1.263.872-2.576,1.669-1.849,1.128-3.784,2.12c-.782.4-1.569.782-2.37,1.143-.2.09-.406.185-.612.271q-2.1.932-4.28,1.689a57.238,57.238,0,0,1-11.713,2.766,58.286,58.286,0,0,1-7.467.476c-1.258,0-2.511-.04-3.749-.12-1.083-.07-2.155-.165-3.218-.3-1.709-.205-3.4-.481-5.062-.837-.055-.01-.115-.025-.17-.035a56.789,56.789,0,0,1-10.1-3.142c-.887-.371-1.764-.757-2.626-1.173q-1.631-.767-3.2-1.639a58.141,58.141,0,1,1,86.257-50.894Z" transform="translate(-381.264 -320.378)" fill="#f1f1f1"/>
    <circle id="Ellipse_27" data-name="Ellipse 27" cx="12.982" cy="12.982" r="12.982" transform="translate(146.277 221.907)" fill="#ffb8b8"/>
    <path id="Path_190" data-name="Path 190" d="M581.062,687.139c-1.709-.205-3.4-.481-5.062-.837l1.579-35.523.226-.236,3.232-3.413h10.279l3.794,3.674.321.316,8.114,7.773,3.664,25.42a57.242,57.242,0,0,1-11.713,2.766,58.274,58.274,0,0,1-7.467.476c-1.258,0-2.511-.04-3.749-.12C583.2,687.364,582.125,687.269,581.062,687.139Z" transform="translate(-427.173 -395.875)" fill="#cbcbcb"/>
    <path id="Path_191" data-name="Path 191" d="M546.913,685.179q-1.631-.767-3.2-1.639c-.105-9.623-.175-16.013-.175-16.013l1.223-.747a.406.406,0,0,1,.045-.02l13.877-8.43L561.6,653.6l.015.17.857,9.973a173.773,173.773,0,0,1,5.618,26.918c-1.083-.07-2.155-.165-3.217-.3-1.709-.205-3.4-.481-5.062-.837-.055-.01-.115-.025-.17-.035a56.787,56.787,0,0,1-10.1-3.142C548.652,685.981,547.775,685.595,546.913,685.179Z" transform="translate(-410.981 -399.103)" fill="#2f2e41"/>
    <path id="Path_192" data-name="Path 192" d="M625.4,687.539a57.237,57.237,0,0,1-11.713,2.767,45.743,45.743,0,0,1-.607-9.8c1.083-17.306-1.413-26.908-.331-26.908l.551.431,6.811,5.383,8.966,3.288h.005l6.169,2.26,1.088.4v.516c0,1.784.015,8.029.105,16.438q-1.849,1.128-3.784,2.12c-.782.4-1.569.782-2.37,1.143-.2.09-.406.185-.612.271C628.284,686.472,626.856,687.038,625.4,687.539Z" transform="translate(-445.367 -399.103)" fill="#2f2e41"/>
    <path id="Path_193" data-name="Path 193" d="M568.989,600.237s1.1-1.937.847-8.408,9.6-2.811,17.831-3.428,6.491,10.8,6.491,10.8.594-.679,1.866-6.191-1.616-11-1.616-11c-.85-5.792-5.434-3.936-5.434-3.936a2.4,2.4,0,0,1,1.783,2.7c-1.868-3.276-6.452-1.419-6.452-1.419-6.113-3.836-12.308,1.216-12.308,1.216-7.385,1.676-3.054,7.549-3.054,7.549C561.517,591.867,568.989,600.237,568.989,600.237Z" transform="translate(-422.012 -361.287)" fill="#2f2e41"/>
    <path id="Path_194" data-name="Path 194" d="M531.32,692.6c.191-4.405.276-7.247.175-7.643-.516-2.065,6.53-4.831,7.172-5.077a.4.4,0,0,1,.045-.02l1.434.767.672,17.651q-1.631-.767-3.2-1.639A57.7,57.7,0,0,1,531.32,692.6Z" transform="translate(-404.885 -412.202)" fill="#2f2e41"/>
    <path id="Path_195" data-name="Path 195" d="M651.331,691.3q-1.849,1.128-3.784,2.12c-.782.4-1.569.782-2.37,1.143-.2.09-.406.185-.612.271l-2.255-22.267,1.318-.962s.12.03.336.08h.005a26.086,26.086,0,0,1,6.169,2.26,3.868,3.868,0,0,1,1.088.917,1.114,1.114,0,0,1,.255.792c-.06.581.942,6.094,2.426,13.978Q652.644,690.5,651.331,691.3Z" transform="translate(-460.25 -408.081)" fill="#2f2e41"/>
    <path id="Path_196" data-name="Path 196" d="M136.559,393.437H115V296.788h1v95.647h20.556Z" transform="translate(-57.386 -148.05)" fill="#f1f1f1"/>
    <path id="Path_197" data-name="Path 197" d="M505.551,392.545H483.992v-1h20.556V295h1Z" transform="translate(-241.449 -147.158)" fill="#f1f1f1"/>
    <circle id="Ellipse_28" data-name="Ellipse 28" cx="13.249" cy="13.249" r="13.249" transform="translate(250.347 100.975)" fill="#6c63ff"/>
    <path id="Path_198" data-name="Path 198" d="M519.534,227.959l-3.966-5.1,2.306-1.794,1.877,2.414,6.343-6.7,2.121,2.009Z" transform="translate(-257.2 -108.142)" fill="#fff"/>
    <circle id="Ellipse_29" data-name="Ellipse 29" cx="13.249" cy="13.249" r="13.249" transform="translate(44.866 102.009)" fill="#6c63ff"/>
    <path id="Path_199" data-name="Path 199" d="M109.534,230.022l-3.966-5.1,2.306-1.794,1.877,2.414,6.343-6.7,2.121,2.009Z" transform="translate(-52.681 -109.171)" fill="#fff"/>
    <circle id="Ellipse_30" data-name="Ellipse 30" cx="13.249" cy="13.249" r="13.249" transform="translate(147.607 278.422)" fill="#6c63ff"/>
    <path id="Path_200" data-name="Path 200" d="M314.534,582.022l-3.966-5.1,2.306-1.794,1.877,2.414,6.343-6.7,2.121,2.009Z" transform="translate(-154.94 -284.758)" fill="#fff"/>
  </g>
</svg>
