<svg xmlns="http://www.w3.org/2000/svg" width="21.174" height="31.763" viewBox="0 0 21.174 31.763">
  <g id="mother-svgrepo-com-2" transform="translate(-49.508 -0.001)">
    <circle id="Ellipse_138" data-name="Ellipse 138" cx="3.461" cy="3.461" r="3.461" transform="translate(55.457 2.348)" fill="#ea5544"/>
    <path id="Path_537" data-name="Path 537" d="M52.025,9.658A1.048,1.048,0,0,0,53.067,8.49c-.069-.6-.041-2.478.951-3.216a4.939,4.939,0,0,1,2.869-3.955c-.629-.48-2.98-2.066-5.252-.9a4.4,4.4,0,0,0-2.036,3.3,6.535,6.535,0,0,0,1.677,5.619A1.048,1.048,0,0,0,52.025,9.658Z" transform="translate(0 0)" fill="#ea5544"/>
    <path id="Path_538" data-name="Path 538" d="M119.832,144.846l-2.571,2.014a2.139,2.139,0,0,0-.441,2.8l.526.78a1.655,1.655,0,0,0,1.381.756,1.693,1.693,0,0,0,1.064-.385l6.068-4.862c.37-.3.473-.556.449-.689s-.213-.338-.664-.484l-1.931-.623a3.634,3.634,0,0,0-1.094-.153A4.8,4.8,0,0,0,119.832,144.846Z" transform="translate(-59.812 -128.601)" fill="#ea5544"/>
    <path id="Path_539" data-name="Path 539" d="M194.753,106.569a1.861,1.861,0,1,0-1.861-1.861A1.864,1.864,0,0,0,194.753,106.569Z" transform="translate(-128.05 -91.846)" fill="#ea5544"/>
    <path id="Path_540" data-name="Path 540" d="M61.745,115.555l-.652.523a3.117,3.117,0,0,1-4.581-.7l-.526-.78a3.6,3.6,0,0,1,.753-4.778l2.571-2.014A6.252,6.252,0,0,1,63,106.655a5.705,5.705,0,0,1,.762.05,3.322,3.322,0,0,1,.089-2.465,6.76,6.76,0,0,0-2.172-.414H56.543a4.02,4.02,0,0,0-3.809,3.184l-3,16.611a.734.734,0,0,0,.722.864H64.3a.734.734,0,0,0,.734-.734v-6.364a4.978,4.978,0,0,1-1.588-.671l-1.7-1.161Z" transform="translate(-0.195 -92.721)" fill="#ea5544"/>
    <path id="Path_541" data-name="Path 541" d="M180.288,146.014l-1-1.023a3.327,3.327,0,0,1-.905.492,1.7,1.7,0,0,1,.125.4,2.229,2.229,0,0,1-.975,2.1l-4.217,3.379,1.332.908c2.107,1.161,3.363.683,4.13-.008.39-.351,1.483-1.483,1.483-1.483A3.4,3.4,0,0,0,180.288,146.014Z" transform="translate(-110.566 -129.485)" fill="#ea5544"/>
  </g>
</svg>
