<svg xmlns="http://www.w3.org/2000/svg" width="19.883" height="24.207" viewBox="0 0 19.883 24.207">
  <g id="Group_114" data-name="Group 114" transform="translate(-2.3 0.75)">
    <path id="Path_52" data-name="Path 52" d="M12.242,28.242a23.323,23.323,0,0,1-8.819-1.483A.711.711,0,0,1,3,26.109,7.117,7.117,0,0,1,10.109,19h4.265a7.117,7.117,0,0,1,7.109,7.109.711.711,0,0,1-.422.65,23.323,23.323,0,0,1-8.819,1.483Zm8.531-2.133Z" transform="translate(0 -5.493)" fill="none" stroke="#262e3c" stroke-width="1.4"/>
    <path id="Path_53" data-name="Path 53" d="M13.687,12.085C10.432,12.085,8,8.708,8,5.687a5.687,5.687,0,1,1,11.374,0C19.374,8.708,16.942,12.085,13.687,12.085Z" transform="translate(-1.445)" fill="none" stroke="#262e3c" stroke-width="1.5"/>
  </g>
</svg>
