<svg xmlns="http://www.w3.org/2000/svg" width="28.305" height="21" viewBox="0 0 28.305 21">
  <path id="Path_388" data-name="Path 388" d="M27.935,9H2.37A1.37,1.37,0,0,0,1,10.37V28.631A1.37,1.37,0,0,0,2.37,30H27.935a1.37,1.37,0,0,0,1.37-1.37V10.37A1.37,1.37,0,0,0,27.935,9Zm-4.484,4.083a.457.457,0,0,1,.761-.5,5.924,5.924,0,0,1,0,6.537.457.457,0,0,1-.761-.5,5.012,5.012,0,0,0,0-5.53Zm-1.483,1.076a.458.458,0,0,1,.776-.485,4.088,4.088,0,0,1,0,4.353.457.457,0,0,1-.388.214.452.452,0,0,1-.242-.069.457.457,0,0,1-.144-.63,3.172,3.172,0,0,0,0-3.383Zm-1.5,1.059a.457.457,0,1,1,.808-.426,2.213,2.213,0,0,1,0,2.116.457.457,0,1,1-.808-.426,1.3,1.3,0,0,0,0-1.265ZM4.652,13.109a.457.457,0,0,1,.457-.457H9.674a.457.457,0,0,1,.457.457v3.2a.457.457,0,0,1-.457.457H5.109a.457.457,0,0,1-.457-.457ZM16.978,25.435H5.109a.457.457,0,0,1,0-.913h11.87a.457.457,0,0,1,0,.913Zm2.054-8.9a.685.685,0,1,1,.685-.685A.685.685,0,0,1,19.033,16.533Zm6.163,8.9H20.631a.457.457,0,1,1,0-.913H25.2a.457.457,0,1,1,0,.913Z" transform="translate(-1 -9)" fill="#fff"/>
</svg>