<svg xmlns="http://www.w3.org/2000/svg" width="19" height="18.136" viewBox="0 0 19 18.136">
  <g id="verified" transform="translate(-1 -1.5)">
    <path id="Path_427" data-name="Path 427" d="M20,10.56,17.893,8.15l.294-3.187-3.118-.708L13.436,1.5,10.5,2.761,7.564,1.5,5.931,4.255l-3.118.7.294,3.2L1,10.56l2.107,2.41-.294,3.2,3.118.708,1.632,2.764,2.936-1.27,2.936,1.261,1.632-2.755,3.118-.708-.294-3.187L20,10.56Zm-3.411,1.278L16.1,12.4l.069.734.155,1.684-1.641.371-.725.164-.38.639-.855,1.451-1.537-.665-.691-.294-.682.294-1.537.665L7.425,16l-.38-.639L6.32,15.2l-1.641-.371.155-1.693L4.9,12.4l-.484-.561-1.114-1.27L4.42,9.29,4.9,8.729l-.078-.743L4.67,6.31l1.641-.371.725-.164.38-.639.855-1.451,1.537.665.691.294.682-.294,1.537-.665.855,1.451.38.639.725.164,1.641.371-.155,1.684-.069.734.484.561,1.114,1.27-1.105,1.278Z" fill="#09b59b"/>
    <path id="Path_428" data-name="Path 428" d="M9.067,13.75l-1.7-2.33L6.29,12.91l2.777,3.81L14.43,9.36,13.349,7.87,9.067,13.75Z" transform="translate(0 -1.501)" fill="#09b59b"/>
  </g>
</svg>