<svg xmlns="http://www.w3.org/2000/svg" width="17.708" height="14.33" viewBox="0 0 17.708 14.33">
  <g id="briefcase-svgrepo-com" transform="translate(0 -3.051)">
    <g id="Group_93" data-name="Group 93" transform="translate(0 3.051)">
      <path id="Path_417" data-name="Path 417" d="M0,18.4v4.457a1.359,1.359,0,0,0,1.359,1.358h14.99a1.358,1.358,0,0,0,1.359-1.358v-4.5L8.856,19.6Z" transform="translate(0 -9.884)"/>
      <path id="Path_418" data-name="Path 418" d="M12.594,5.56V4.411a1.36,1.36,0,0,0-1.359-1.36H6.184a1.359,1.359,0,0,0-1.359,1.36V5.56H1.359A1.36,1.36,0,0,0,0,6.92v3.323l8.852,1.205L17.708,10.2V6.92a1.36,1.36,0,0,0-1.359-1.36ZM10.857,8.165v1.64H6.9V7.828h3.957Zm.434-2.615v.01H6.127v-.5a.709.709,0,0,1,.709-.709h3.745a.709.709,0,0,1,.709.709V5.55Z" transform="translate(0 -3.051)"/>
    </g>
  </g>
</svg>
