<svg id="Group_92" data-name="Group 92" xmlns="http://www.w3.org/2000/svg" width="16.362" height="19.208" viewBox="0 0 16.362 19.208">
  <path id="Path_415" data-name="Path 415" d="M5.6,9.113a3.713,3.713,0,1,1,5.869,3.021,2.6,2.6,0,0,0,.1,2.466A5.933,5.933,0,0,0,10.947,3.41l1.213-1.1V.787a.789.789,0,0,0-.8-.787h-4.1a.792.792,0,0,0-.8.787V2.311l1.215,1.1a5.933,5.933,0,0,0-.8,11.113,7.059,7.059,0,0,1,.02-2.594A3.7,3.7,0,0,1,5.6,9.113Z" transform="translate(-3.377)"/>
  <path id="Path_416" data-name="Path 416" d="M22.42,18.555A7.043,7.043,0,0,1,22.4,21.15a3.712,3.712,0,1,1-4.568-.22,2.6,2.6,0,0,0-.1-2.46,5.934,5.934,0,1,0,4.693.085Z" transform="translate(-9.547 -10.684)"/>
</svg>
