<svg xmlns="http://www.w3.org/2000/svg" width="20.655" height="20.655" viewBox="0 0 20.655 20.655">
  <g id="gender-svgrepo-com" transform="translate(-3.293 -3)">
    <line id="Line_85" data-name="Line 85" x2="4.277" y2="4.277" transform="translate(4 18.671)" fill="none" stroke="#000" stroke-miterlimit="10" stroke-width="2"/>
    <path id="Path_411" data-name="Path 411" d="M22,4h4.737V8.737" transform="translate(-3.789)" fill="none" stroke="#000" stroke-miterlimit="10" stroke-width="2"/>
    <line id="Line_86" data-name="Line 86" x1="4.554" y2="4.554" transform="translate(18.394 4)" fill="none" stroke="#000" stroke-miterlimit="10" stroke-width="2"/>
    <line id="Line_87" data-name="Line 87" y1="4.306" x2="4.306" transform="translate(4 18.642)" fill="none" stroke="#000" stroke-miterlimit="10" stroke-width="2"/>
    <path id="Path_412" data-name="Path 412" d="M13.995,11.255a2.432,2.432,0,0,0-.264.213,2.742,2.742,0,0,0-.7,1.214,3.969,3.969,0,1,1-3.942,1.986,6.532,6.532,0,0,1-.013-2.4,5.737,5.737,0,0,0-.459.408,5.532,5.532,0,1,0,5.376-1.417Z" transform="translate(-0.632 -1.527)"/>
    <path id="Path_413" data-name="Path 413" d="M20.434,8.618a5.526,5.526,0,1,0-5.376,9.233,2.432,2.432,0,0,0,.264-.213,2.742,2.742,0,0,0,.7-1.214,3.969,3.969,0,1,1,3.942-1.986,6.532,6.532,0,0,1,.013,2.4,5.736,5.736,0,0,0,.459-.408,5.526,5.526,0,0,0,0-7.816Z" transform="translate(-1.474 -0.632)"/>
  </g>
</svg>
