<svg xmlns="http://www.w3.org/2000/svg" width="12.208" height="12.208" viewBox="0 0 12.208 12.208">
  <g id="report-slash-svgrepo-com" transform="translate(-16 -16)">
    <rect id="Rectangle_109" data-name="Rectangle 109" width="0.847" height="0.847" transform="translate(21.714 24.504)" fill="#ea5544"/>
    <path id="Path_247" data-name="Path 247" d="M127.6,16h-5.057l-.889.961.576.576.668-.723h4.345l3.118,3.371v3.839l-.79.854.576.576,1.028-1.111V19.866Z" transform="translate(-102.966)" fill="#ea5544"/>
    <path id="Path_248" data-name="Path 248" d="M240,128v1.122l.814.814V128Z" transform="translate(-218.303 -109.151)" fill="#ea5544"/>
    <path id="Path_249" data-name="Path 249" d="M16,16v.575l1.581,1.581L16,19.866v4.476l3.576,3.866h5.057l1.442-1.559,1.559,1.559h.575v-.575L16.575,16Zm8.277,11.394H19.931l-3.118-3.371V20.185l1.343-1.452,3.54,3.54v1.459h.814v-.645L25.5,26.073Z" fill="#ea5544"/>
  </g>
</svg>