<svg xmlns="http://www.w3.org/2000/svg" width="16.622" height="16.669" viewBox="0 0 16.622 16.669">
  <g id="dot-arrow-svgrepo-com" transform="translate(0.052 0.5)">
    <circle id="Ellipse_107" data-name="Ellipse 107" cx="0.781" cy="0.781" r="0.781" transform="translate(0.448 0)" fill="#262e3c" stroke="#262e3c" stroke-width="1"/>
    <circle id="Ellipse_108" data-name="Ellipse 108" cx="0.781" cy="0.781" r="0.781" transform="translate(2.767 2.366)" fill="#262e3c" stroke="#262e3c" stroke-width="1"/>
    <circle id="Ellipse_109" data-name="Ellipse 109" cx="0.781" cy="0.781" r="0.781" transform="translate(2.767 0)" fill="#262e3c" stroke="#262e3c" stroke-width="1"/>
    <circle id="Ellipse_110" data-name="Ellipse 110" cx="0.781" cy="0.781" r="0.781" transform="translate(5.133 2.366)" fill="#262e3c" stroke="#262e3c" stroke-width="1"/>
    <circle id="Ellipse_111" data-name="Ellipse 111" cx="0.781" cy="0.781" r="0.781" transform="translate(5.133 4.685)" fill="#262e3c" stroke="#262e3c" stroke-width="1"/>
    <circle id="Ellipse_112" data-name="Ellipse 112" cx="0.781" cy="0.781" r="0.781" transform="translate(5.133 0)" fill="#262e3c" stroke="#262e3c" stroke-width="1"/>
    <circle id="Ellipse_113" data-name="Ellipse 113" cx="0.781" cy="0.781" r="0.781" transform="translate(7.451 2.366)" fill="#262e3c" stroke="#262e3c" stroke-width="1"/>
    <circle id="Ellipse_114" data-name="Ellipse 114" cx="0.781" cy="0.781" r="0.781" transform="translate(7.451 4.685)" fill="#262e3c" stroke="#262e3c" stroke-width="1"/>
    <circle id="Ellipse_115" data-name="Ellipse 115" cx="0.781" cy="0.781" r="0.781" transform="translate(7.451 0)" fill="#262e3c" stroke="#262e3c" stroke-width="1"/>
    <circle id="Ellipse_116" data-name="Ellipse 116" cx="0.781" cy="0.781" r="0.781" transform="translate(9.77 2.366)" fill="#262e3c" stroke="#262e3c" stroke-width="1"/>
    <circle id="Ellipse_117" data-name="Ellipse 117" cx="0.781" cy="0.781" r="0.781" transform="translate(9.77 4.685)" fill="#262e3c" stroke="#262e3c" stroke-width="1"/>
    <circle id="Ellipse_118" data-name="Ellipse 118" cx="0.781" cy="0.781" r="0.781" transform="translate(7.451 7.003)" fill="#262e3c" stroke="#262e3c" stroke-width="1"/>
    <circle id="Ellipse_119" data-name="Ellipse 119" cx="0.781" cy="0.781" r="0.781" transform="translate(9.77 7.003)" fill="#262e3c" stroke="#262e3c" stroke-width="1"/>
    <circle id="Ellipse_120" data-name="Ellipse 120" cx="0.781" cy="0.781" r="0.781" transform="translate(5.133 9.369)" fill="#262e3c" stroke="#262e3c" stroke-width="1"/>
    <circle id="Ellipse_121" data-name="Ellipse 121" cx="0.781" cy="0.781" r="0.781" transform="translate(7.451 9.369)" fill="#262e3c" stroke="#262e3c" stroke-width="1"/>
    <circle id="Ellipse_122" data-name="Ellipse 122" cx="0.781" cy="0.781" r="0.781" transform="translate(9.77 9.369)" fill="#262e3c" stroke="#262e3c" stroke-width="1"/>
    <circle id="Ellipse_123" data-name="Ellipse 123" cx="0.781" cy="0.781" r="0.781" transform="translate(2.767 11.691)" fill="#262e3c" stroke="#262e3c" stroke-width="1"/>
    <circle id="Ellipse_124" data-name="Ellipse 124" cx="0.781" cy="0.781" r="0.781" transform="translate(5.133 11.691)" fill="#262e3c" stroke="#262e3c" stroke-width="1"/>
    <circle id="Ellipse_125" data-name="Ellipse 125" cx="0.781" cy="0.781" r="0.781" transform="translate(7.451 11.691)" fill="#262e3c" stroke="#262e3c" stroke-width="1"/>
    <circle id="Ellipse_126" data-name="Ellipse 126" cx="0.781" cy="0.781" r="0.781" transform="translate(9.77 11.691)" fill="#262e3c" stroke="#262e3c" stroke-width="1"/>
    <circle id="Ellipse_127" data-name="Ellipse 127" cx="0.781" cy="0.781" r="0.781" transform="translate(12.186 4.685)" fill="#262e3c" stroke="#262e3c" stroke-width="1"/>
    <circle id="Ellipse_128" data-name="Ellipse 128" cx="0.781" cy="0.781" r="0.781" transform="translate(12.186 7.003)" fill="#262e3c" stroke="#262e3c" stroke-width="1"/>
    <circle id="Ellipse_129" data-name="Ellipse 129" cx="0.781" cy="0.781" r="0.781" transform="translate(12.186 9.369)" fill="#262e3c" stroke="#262e3c" stroke-width="1"/>
    <circle id="Ellipse_130" data-name="Ellipse 130" cx="0.781" cy="0.781" r="0.781" transform="translate(0.448 14.107)" fill="#262e3c" stroke="#262e3c" stroke-width="1"/>
    <circle id="Ellipse_131" data-name="Ellipse 131" cx="0.781" cy="0.781" r="0.781" transform="translate(2.767 14.107)" fill="#262e3c" stroke="#262e3c" stroke-width="1"/>
    <circle id="Ellipse_132" data-name="Ellipse 132" cx="0.781" cy="0.781" r="0.781" transform="translate(5.133 14.107)" fill="#262e3c" stroke="#262e3c" stroke-width="1"/>
    <circle id="Ellipse_133" data-name="Ellipse 133" cx="0.781" cy="0.781" r="0.781" transform="translate(7.451 14.107)" fill="#262e3c" stroke="#262e3c" stroke-width="1"/>
    <circle id="Ellipse_134" data-name="Ellipse 134" cx="0.781" cy="0.781" r="0.781" transform="translate(14.508 7.003)" fill="#262e3c" stroke="#262e3c" stroke-width="1"/>
  </g>
</svg>
