<svg xmlns="http://www.w3.org/2000/svg" width="14.097" height="16.241" viewBox="0 0 14.097 16.241">
  <g id="Group_20" data-name="Group 20" transform="translate(0 0)">
    <path id="Path_262" data-name="Path 262" d="M82.415-501.966a1.622,1.622,0,0,0-.994,1.181,2.3,2.3,0,0,0-.051,1.01,1.491,1.491,0,0,1,.041.257s-.076.029-.159.06a1.622,1.622,0,0,0-.768.743l-.063.133h-1.27l-2.232,2.232-2.229,2.229,1.359,1.359,1.356,1.356,1.73-1.73c.953-.953,1.74-1.73,1.75-1.73a9.69,9.69,0,0,1,.13,1.508,2.851,2.851,0,0,1-.94,2.318,5.957,5.957,0,0,1-1.273.959,3.031,3.031,0,0,0-.914.74,2.22,2.22,0,0,0,1.07,3.48,2.319,2.319,0,0,0,1.883-.235,13.206,13.206,0,0,0,1.314-1.276c1.572-1.619,1.813-1.873,2.708-2.842.438-.473.924-.994,1.083-1.159a2.049,2.049,0,0,0,.565-.889,3.754,3.754,0,0,0-.089-2.273,7.108,7.108,0,0,0-.737-1.441,6.408,6.408,0,0,0-1.152-1.171,4.727,4.727,0,0,0-1.038-.53l-.165-.048.019-.149a1.8,1.8,0,0,0-.019-.378l-.035-.225.2-.2a1.827,1.827,0,0,0,.467-.819,2.856,2.856,0,0,0,.019-1.238,1.824,1.824,0,0,0-.835-1.162A1.112,1.112,0,0,0,82.415-501.966Zm-.648,3.146a1.213,1.213,0,0,0,.9.518l.213.016.035.137a1.148,1.148,0,0,1,.035.229v.092l-.308.016a1.847,1.847,0,0,0-.714.168c-.054.022-.057-.013-.057-.457v-.476l-.353-.01-.353-.009.073-.092a.908.908,0,0,1,.378-.273C81.64-498.962,81.71-498.9,81.767-498.82Zm-.273.848c-.006.146-.022.66-.041,1.146l-.029.883-.127.149c-.07.083-.959.981-1.978,2l-1.851,1.848-1.127-1.108-1.127-1.108,1.991-1.991L79.2-498.15l.552-.013.556-.013.016.391c.016.441.076.657.2.759a.344.344,0,0,0,.1.063c.07,0,.175-.263.273-.7a4.9,4.9,0,0,1,.137-.511.733.733,0,0,1,.327-.054l.143,0Z" transform="translate(-74.69 502.002)" fill="#262e3c"/>
    <path id="Path_263" data-name="Path 263" d="M637.278-397.13a1.725,1.725,0,0,0-.635.457,1.543,1.543,0,0,0-.267,1.851c.619.683,1.978-.368,1.981-1.53A.752.752,0,0,0,637.278-397.13Z" transform="translate(-626.864 398.941)" fill="#262e3c"/>
    <path id="Path_264" data-name="Path 264" d="M727.647-287.646a1.606,1.606,0,0,0-.9.775c-.2.4-.152.721.127.9a.542.542,0,0,0,.394.089.8.8,0,0,0,.467-.1,1.293,1.293,0,0,0,.79-1.3A.621.621,0,0,0,727.647-287.646Z" transform="translate(-715.82 291.251)" fill="#262e3c"/>
    <path id="Path_265" data-name="Path 265" d="M781.992-195.765a1.391,1.391,0,0,0-.943,1.143c-.006.867,1.276.714,1.727-.2a.773.773,0,0,0,.108-.441.462.462,0,0,0-.076-.33A.711.711,0,0,0,781.992-195.765Z" transform="translate(-769.343 200.894)" fill="#262e3c"/>
    <path id="Path_266" data-name="Path 266" d="M807.4-80.274c-.511.118-.87.454-.87.822a.468.468,0,0,0,.3.432.854.854,0,0,0,.508.083.932.932,0,0,0,.556-.1c.371-.181.6-.451.6-.711C808.5-80.141,807.962-80.4,807.4-80.274Z" transform="translate(-794.402 87.295)" fill="#262e3c"/>
  </g>
</svg>
