<svg xmlns="http://www.w3.org/2000/svg" width="10.313" height="14.483" viewBox="0 0 10.313 14.483">
  <g id="laboratory-microscope-svgrepo-com" transform="translate(-70.537)">
    <path id="Path_267" data-name="Path 267" d="M285.225,3.764a.171.171,0,0,0,.242,0l1.27-1.27a.171.171,0,0,0,0-.242l-2.2-2.2a.171.171,0,0,0-.242,0l-1.27,1.27a.171.171,0,0,0,0,.242Z" transform="translate(-206.157 0)" fill="#262e3c"/>
    <path id="Path_268" data-name="Path 268" d="M73.031,216.2l1.27-1.27a.171.171,0,0,0,0-.242l-2.2-2.2a.171.171,0,0,0-.242,0l-1.27,1.27a.171.171,0,0,0,0,.242l2.2,2.2A.171.171,0,0,0,73.031,216.2Z" transform="translate(0 -206.156)" fill="#262e3c"/>
    <g id="Group_21" data-name="Group 21" transform="translate(70.723 1.715)">
      <path id="Path_269" data-name="Path 269" d="M131.271,64.637a.171.171,0,0,0,.242,0l2.45-2.45a1.681,1.681,0,0,1,.96-1.76l-2.352-2.352a.171.171,0,0,0-.242,0l-3.689,3.689a.171.171,0,0,0,0,.242Z" transform="translate(-127.059 -58.024)" fill="#262e3c"/>
      <path id="Path_270" data-name="Path 270" d="M332.007,155.093a1.094,1.094,0,1,0-1.094,1.094h0A1.094,1.094,0,0,0,332.007,155.093Z" transform="translate(-322.342 -151.162)" fill="#262e3c"/>
      <path id="Path_271" data-name="Path 271" d="M85.426,233.542a3.252,3.252,0,0,1-3.818,4.571.377.377,0,0,0,.207-.336v-.534h-5v.534a.377.377,0,0,0,.377.377h2.21a4.412,4.412,0,0,0,1.208.844c-1.107.273-1.888.93-1.888,1.7h6.056a1.713,1.713,0,0,0-1.121-1.423,4.437,4.437,0,0,0,2.864-6.169A1.672,1.672,0,0,1,85.426,233.542Z" transform="translate(-76.82 -227.928)" fill="#262e3c"/>
    </g>
  </g>
</svg>
