<svg xmlns="http://www.w3.org/2000/svg" width="16.836" height="15.271" viewBox="0 0 16.836 15.271">
  <g id="home-svgrepo-com" transform="translate(0 -23.327)">
    <path id="Path_293" data-name="Path 293" d="M82.8,37.9l-6.046-4.572L70.706,37.9V47.928H82.8Z" transform="translate(-68.335 -9.665)" fill="#262e3c"/>
    <g id="Group_63" data-name="Group 63" transform="translate(0 23.327)">
      <path id="Path_294" data-name="Path 294" d="M126.691,185.183a2.232,2.232,0,0,0-2.157,1.661,2.231,2.231,0,0,0-4.388.57c0,1.232,1.36,2.335,2.231,3.206,1.086,1.086,2.157,2.069,2.157,2.069s1.13-1.042,2.157-2.069c.871-.871,2.231-1.974,2.231-3.206A2.231,2.231,0,0,0,126.691,185.183Z" transform="translate(-116.116 -179.755)" fill="rgba(38,46,60,0.62)"/>
      <g id="Group_62" data-name="Group 62">
        <path id="Path_295" data-name="Path 295" d="M.4,199.566l-.268.2a.335.335,0,1,0,.4.535l.268-.2a.335.335,0,1,0-.4-.535Z" transform="translate(0 -193.59)"/>
        <path id="Path_296" data-name="Path 296" d="M40,23.4a.335.335,0,0,0-.4,0L32.6,28.683a.335.335,0,0,0,.4.535l.409-.31v9.354a.335.335,0,0,0,.335.335H45.84a.335.335,0,0,0,.335-.335V28.909l1.5,1.133a.335.335,0,0,0,.4-.535Zm5.509,14.532H34.083V28.4l5.711-4.318L45.505,28.4v9.526Z" transform="translate(-31.376 -23.327)"/>
        <path id="Path_297" data-name="Path 297" d="M244.067,67.313a.335.335,0,0,0,.065.47l.7.531a.335.335,0,0,0,.4-.535l-.7-.531A.335.335,0,0,0,244.067,67.313Z" transform="translate(-235.816 -65.709)" fill="#fff"/>
        <path id="Path_298" data-name="Path 298" d="M290.132,102.564l3.32,2.51a.335.335,0,1,0,.4-.535l-3.32-2.51a.335.335,0,1,0-.4.535Z" transform="translate(-280.273 -99.324)" fill="#fff"/>
        <path id="Path_299" data-name="Path 299" d="M117.027,175.182a2.569,2.569,0,0,0-2.157,1.175,2.567,2.567,0,0,0-4.724,1.391c0,1.2,1.075,2.233,1.938,3.063.139.133.27.259.391.381,1.079,1.079,2.157,2.069,2.168,2.079a.335.335,0,0,0,.454,0c.011-.01,1.147-1.058,2.167-2.078.122-.122.253-.247.391-.381.864-.83,1.938-1.863,1.938-3.063A2.569,2.569,0,0,0,117.027,175.182Zm.164,5.146c-.141.136-.275.264-.4.39-.739.738-1.539,1.492-1.921,1.848-.371-.346-1.145-1.074-1.92-1.848-.126-.126-.26-.254-.4-.39-.772-.742-1.732-1.665-1.732-2.579a1.9,1.9,0,0,1,3.729-.485.335.335,0,0,0,.649,0,1.9,1.9,0,0,1,3.729.485C118.923,178.663,117.962,179.586,117.191,180.328Z" transform="translate(-106.452 -170.089)" fill="#fff"/>
        <path id="Path_300" data-name="Path 300" d="M309.045,276.717l-.319.314a.335.335,0,0,0,.471.478l.319-.314a.335.335,0,1,0-.471-.478Z" transform="translate(-298.276 -268.126)" fill="#fff"/>
        <path id="Path_301" data-name="Path 301" d="M245.6,310.531l-1.33,1.311a.335.335,0,1,0,.471.478l1.33-1.311a.335.335,0,1,0-.471-.478Z" transform="translate(-235.981 -300.806)" fill="#fff"/>
      </g>
    </g>
  </g>
</svg>
