<svg xmlns="http://www.w3.org/2000/svg" width="14.832" height="15.514" viewBox="0 0 14.832 15.514">
  <g id="drugs-svgrepo-com" transform="translate(-11.25)">
    <path id="Path_302" data-name="Path 302" d="M305.025,311.464a3.409,3.409,0,1,1-4.822,4.821Z" transform="translate(-280.198 -302.026)" fill="none"/>
    <path id="Path_303" data-name="Path 303" d="M268.248,279.5a3.409,3.409,0,0,1,4.822,0l-4.822,4.821A3.409,3.409,0,0,1,268.248,279.5Z" transform="translate(-248.242 -270.062)" fill="#262e3c"/>
    <path id="Path_304" data-name="Path 304" d="M267.244,120.974h6.819a3.41,3.41,0,0,1-6.819,0Z" transform="translate(-248.237 -117.308)" fill="none"/>
    <path id="Path_305" data-name="Path 305" d="M274.063,11.863h-6.819a3.41,3.41,0,0,1,6.819,0Z" transform="translate(-248.237 -8.198)" fill="#262e3c"/>
    <path id="Path_306" data-name="Path 306" d="M25.5,255.993v6.819a.682.682,0,0,1-.682.682H20.387a.682.682,0,0,1-.682-.682v-6.819Z" transform="translate(-8.199 -248.236)" fill="none"/>
    <path id="Path_307" data-name="Path 307" d="M25.5,9.137v6.819H19.7V9.137a.682.682,0,0,1,.682-.682h4.432A.682.682,0,0,1,25.5,9.137Z" transform="translate(-8.198 -8.199)" fill="#262e3c"/>
    <path id="Path_308" data-name="Path 308" d="M16.62,0H12.188a.939.939,0,0,0-.938.938V14.576a.939.939,0,0,0,.938.938H16.62a.939.939,0,0,0,.938-.938V.938A.939.939,0,0,0,16.62,0ZM12.188.512H16.62a.426.426,0,0,1,.426.426V7.5H11.762V.938A.426.426,0,0,1,12.188.512ZM16.62,15H12.188a.426.426,0,0,1-.426-.426V8.013h5.284v6.563A.426.426,0,0,1,16.62,15Z" transform="translate(0 0)"/>
    <path id="Path_309" data-name="Path 309" d="M262.456,7.331a3.666,3.666,0,1,0-3.666-3.666A3.67,3.67,0,0,0,262.456,7.331Zm0-.512a3.158,3.158,0,0,1-3.143-2.9H265.6A3.157,3.157,0,0,1,262.456,6.819Zm0-6.306a3.157,3.157,0,0,1,3.143,2.9h-6.286A3.158,3.158,0,0,1,262.456.512Z" transform="translate(-240.039)"/>
    <path id="Path_310" data-name="Path 310" d="M262.516,270.046a3.666,3.666,0,1,0,2.592,1.074A3.641,3.641,0,0,0,262.516,270.046Zm-2.23,1.436a3.152,3.152,0,0,1,4.27-.173l-4.444,4.443A3.157,3.157,0,0,1,260.286,271.482Zm5.383,2.23a3.152,3.152,0,0,1-5.194,2.4l4.444-4.443A3.129,3.129,0,0,1,265.669,273.712Z" transform="translate(-240.1 -261.863)"/>
  </g>
</svg>
