<svg xmlns="http://www.w3.org/2000/svg" width="12" height="13.228" viewBox="0 0 12 13.228">
  <path id="gym-workout-svgrepo-com" d="M12.505,9.025l-1.495-.512,1.665-6.7h0A4.936,4.936,0,0,0,13.872.7a.459.459,0,0,0-.085-.6.459.459,0,0,0-.6.085,3.823,3.823,0,0,1-3.075,1.537.4.4,0,0,0-.427.427.4.4,0,0,0,.427.427,4.646,4.646,0,0,0,1.537-.256L10.157,8.257,7.082,7.189V7.1L5.673,4.285h.6A.4.4,0,0,0,6.7,3.858a.4.4,0,0,0-.427-.427H4.9a2.419,2.419,0,0,1-1.751-.726.423.423,0,1,0-.6.6,3.315,3.315,0,0,0,2.178.982L5.972,6.8a3.162,3.162,0,0,0-2.6.512,3.275,3.275,0,0,0,1.922,5.936h6.534A2.187,2.187,0,0,0,14,11.075,2.27,2.27,0,0,0,12.505,9.025ZM9.687,10.691h-.9A1.713,1.713,0,1,1,7.125,8.556,1.742,1.742,0,0,1,8.79,9.837h.9a.427.427,0,1,1,0,.854Z" transform="translate(-2 -0.026)" fill="#262e3c"/>
</svg>
