<svg xmlns="http://www.w3.org/2000/svg" width="9.625" height="12.774" viewBox="0 0 9.625 12.774">
  <path id="i-dental-svgrepo-com" d="M13.14,6.914c.956,0,1.4.726,1.492,1.756A7.132,7.132,0,0,1,14.6,9.692c-.107,1.383-.231,3.082.69,3.082.779,0,1.179-1.494,1.41-3.2.223-1.686-.013-2.525.1-3.273.221-1.418,1.46-2.69,1.077-4.5A2.085,2.085,0,0,0,16.568.132c-1.26-.459-2.074.425-3.428.425S10.973-.327,9.711.132A2.086,2.086,0,0,0,8.4,1.806c-.382,1.808.855,3.08,1.077,4.5.116.748-.12,1.587.1,3.273.231,1.7.631,3.2,1.41,3.2.92,0,.8-1.7.69-3.082a7.136,7.136,0,0,1-.033-1.022c.093-1.03.543-1.756,1.493-1.756Z" transform="translate(-8.328 0)" fill="#262e3c"/>
</svg>