<svg xmlns="http://www.w3.org/2000/svg" width="16.824" height="16.123" viewBox="0 0 16.824 16.123">
  <path id="physiotherapist-svgrepo-com" d="M12.953,4.963a1.224,1.224,0,1,0-1.187-1.225A1.208,1.208,0,0,0,12.953,4.963Zm.885.274H12.1L9.145,2.194a.592.592,0,0,0-.858-.02.636.636,0,0,0-.023.883L11.355,6.24V16.791a.668.668,0,1,0,1.336,0V11.069h.54l0,5.723a.668.668,0,1,0,1.336,0s-.776-7.117,0-10.551,3.091-3.184,3.091-3.184a.637.637,0,0,0-.024-.883.591.591,0,0,0-.858.02ZM7.55,9.892a.959.959,0,0,0-.7-.3H4.361a.945.945,0,0,0-.7.3l-2.5,2.567a.637.637,0,0,0,.02.883.6.6,0,0,0,.858-.02l1.935-1.991v2.66H1.811a.73.73,0,0,0-.721.742.74.74,0,0,0,.22.54l2.444,2.515a.719.719,0,0,0,.976.23A.766.766,0,0,0,5,16.981L3.605,15.55l.027,0h4l-1.4,1.431a.774.774,0,0,0,.27,1.035.724.724,0,0,0,.98-.229l2.444-2.515a.743.743,0,0,0,.219-.54.729.729,0,0,0-.721-.741H7.264V11.363l1.9,1.962a.594.594,0,0,0,.858.02.636.636,0,0,0,.02-.882L7.55,9.892ZM5.631,9.328A1.222,1.222,0,1,0,4.443,8.106,1.2,1.2,0,0,0,5.631,9.328Z" transform="translate(-1 -2)"/>
</svg>
