<svg xmlns="http://www.w3.org/2000/svg" width="11.696" height="12.354" viewBox="0 0 11.696 12.354">
  <g id="ophthalmology-svgrepo-com-2" transform="translate(-13.477 0.167)">
    <g id="Group_25" data-name="Group 25" transform="translate(16.032 7.935)">
      <g id="Group_24" data-name="Group 24">
        <path id="Path_275" data-name="Path 275" d="M117.007,337.6a.2.2,0,0,0-.27-.066,1.635,1.635,0,0,0-.793,1.408.2.2,0,0,0,.392,0,1.246,1.246,0,0,1,.6-1.073A.2.2,0,0,0,117.007,337.6Z" transform="translate(-115.944 -337.502)" fill="#262e3c" stroke="#262e3c" stroke-width="0.3"/>
      </g>
    </g>
    <g id="Group_27" data-name="Group 27" transform="translate(16.033 8.3)">
      <g id="Group_26" data-name="Group 26">
        <path id="Path_276" data-name="Path 276" d="M120.6,353.367a.2.2,0,1,0-.275-.28l-1.328,1.3-1.328-1.3a.2.2,0,1,0-.275.28l1.407,1.381v1.627h-2.656a.2.2,0,1,0,0,.392h3.836a.2.2,0,1,0,0-.392h-.788v-1.627Z" transform="translate(-115.946 -353.031)" fill="#262e3c" stroke="#262e3c" stroke-width="0.3"/>
      </g>
    </g>
    <g id="Group_29" data-name="Group 29" transform="translate(20.523 7.935)">
      <g id="Group_28" data-name="Group 28">
        <path id="Path_277" data-name="Path 277" d="M307.763,337.531a.2.2,0,1,0-.2.336,1.246,1.246,0,0,1,.6,1.073v2.273h-1.017a.2.2,0,0,0,0,.392h1.214a.2.2,0,0,0,.2-.2v-2.47A1.635,1.635,0,0,0,307.763,337.531Z" transform="translate(-306.95 -337.502)" fill="#262e3c" stroke="#262e3c" stroke-width="0.3"/>
      </g>
    </g>
    <g id="Group_31" data-name="Group 31" transform="translate(17.72 4.861)">
      <g id="Group_30" data-name="Group 30">
        <path id="Path_278" data-name="Path 278" d="M187.9,206.732a.2.2,0,0,0-.2.2v.314a.2.2,0,0,0,.392,0v-.314A.2.2,0,0,0,187.9,206.732Z" transform="translate(-187.707 -206.732)" fill="#262e3c" stroke="#262e3c" stroke-width="0.3"/>
      </g>
    </g>
    <g id="Group_33" data-name="Group 33" transform="translate(19.601 4.06)">
      <g id="Group_32" data-name="Group 32">
        <path id="Path_279" data-name="Path 279" d="M268.946,172.916a.831.831,0,0,0-1.175,0,.2.2,0,0,0,.277.278.438.438,0,0,1,.62,0,.2.2,0,0,0,.278-.278Z" transform="translate(-267.713 -172.673)" fill="#262e3c" stroke="#262e3c" stroke-width="0.3"/>
      </g>
    </g>
    <g id="Group_35" data-name="Group 35" transform="translate(20.049 4.861)">
      <g id="Group_34" data-name="Group 34">
        <path id="Path_280" data-name="Path 280" d="M286.993,206.732a.2.2,0,0,0-.2.2v.314a.2.2,0,1,0,.392,0v-.314A.2.2,0,0,0,286.993,206.732Z" transform="translate(-286.797 -206.732)" fill="#262e3c" stroke="#262e3c" stroke-width="0.3"/>
      </g>
    </g>
    <g id="Group_37" data-name="Group 37" transform="translate(18.314 6.653)">
      <g id="Group_36" data-name="Group 36">
        <path id="Path_281" data-name="Path 281" d="M214.485,283.035a.2.2,0,0,0-.278,0,.61.61,0,0,1-.862,0,.2.2,0,0,0-.278.278,1,1,0,0,0,1.417,0A.2.2,0,0,0,214.485,283.035Z" transform="translate(-213.01 -282.978)" fill="#262e3c" stroke="#262e3c" stroke-width="0.3"/>
      </g>
    </g>
    <g id="Group_39" data-name="Group 39" transform="translate(18.679 5.126)">
      <g id="Group_38" data-name="Group 38">
        <path id="Path_282" data-name="Path 282" d="M229.13,218.624h-.009v-.406a.2.2,0,0,0-.392,0v.406h-.009a.2.2,0,0,0,0,.392h.41a.2.2,0,0,0,0-.392Z" transform="translate(-228.523 -218.022)" fill="#262e3c" stroke="#262e3c" stroke-width="0.3"/>
      </g>
    </g>
    <g id="Group_41" data-name="Group 41" transform="translate(14.637 0)">
      <g id="Group_40" data-name="Group 40">
        <path id="Path_283" data-name="Path 283" d="M65.3,5.82a.2.2,0,0,0-.223.144.254.254,0,0,1-.5-.041L64.388,3.8A3.366,3.366,0,0,0,63.38,1.689l.369-.933A.2.2,0,0,0,63.639.5a7.083,7.083,0,0,0-5.232,0,.2.2,0,0,0,.144.365A6.69,6.69,0,0,1,63.311.8L62.858,1.94l-.146.368a5.12,5.12,0,0,0-2.083-.273.2.2,0,1,0,.03.391,4.722,4.722,0,0,1,2.092.316.2.2,0,0,0,.255-.11l.215-.543A2.974,2.974,0,0,1,64,3.838l.194,2.122a.646.646,0,0,0,.751.578,1.47,1.47,0,0,1-.545.738,1.318,1.318,0,0,1-1.017.128,2.186,2.186,0,0,0,.6-1.722L63.8,3.755a.2.2,0,0,0-.275-.161,1.368,1.368,0,0,1-1.559-.452.2.2,0,0,0-.316.01,3.782,3.782,0,0,1-3.281,1.365.2.2,0,0,0-.207.177l-.1.989a2.186,2.186,0,0,0,.6,1.722,1.318,1.318,0,0,1-1.017-.128,1.471,1.471,0,0,1-.545-.738.646.646,0,0,0,.751-.578l.194-2.122a.2.2,0,0,0-.391-.036l-.194,2.122a.254.254,0,0,1-.5.041.2.2,0,0,0-.385.066,2.259,2.259,0,0,0,.854,1.575,1.522,1.522,0,0,0,.842.237,2.493,2.493,0,0,0,.756-.13l.992.721a1.694,1.694,0,0,0,2,0l.992-.721a2.493,2.493,0,0,0,.756.13,1.523,1.523,0,0,0,.842-.237,2.26,2.26,0,0,0,.854-1.575A.2.2,0,0,0,65.3,5.82ZM62.865,7.335h0l-1.074.78a1.3,1.3,0,0,1-1.535,0l-1.074-.781a1.791,1.791,0,0,1-.727-1.615l.078-.8h.113A4.33,4.33,0,0,0,61.073,4.2a3.9,3.9,0,0,0,.746-.644,2.191,2.191,0,0,0,.4.3,1.564,1.564,0,0,0,1.211.182l.162,1.679A1.791,1.791,0,0,1,62.865,7.335Z" transform="translate(-56.579 0)" fill="#262e3c" stroke="#262e3c" stroke-width="0.3"/>
      </g>
    </g>
    <g id="Group_43" data-name="Group 43" transform="translate(19.879 10.105)">
      <g id="Group_42" data-name="Group 42">
        <path id="Path_284" data-name="Path 284" d="M280.764,429.823h-1.02a.2.2,0,0,0,0,.393h1.02a.2.2,0,0,0,0-.393Z" transform="translate(-279.547 -429.823)" fill="#262e3c" stroke="#262e3c" stroke-width="0.3"/>
      </g>
    </g>
    <g id="Group_45" data-name="Group 45" transform="translate(15.512 0.949)">
      <g id="Group_44" data-name="Group 44">
        <path id="Path_285" data-name="Path 285" d="M95.245,40.36a1.426,1.426,0,1,0,1.426,1.426A1.428,1.428,0,0,0,95.245,40.36Zm0,2.46a1.034,1.034,0,1,1,1.034-1.034A1.035,1.035,0,0,1,95.245,42.82Z" transform="translate(-93.819 -40.36)" fill="#262e3c" stroke="#262e3c" stroke-width="0.3"/>
      </g>
    </g>
    <g id="Group_47" data-name="Group 47" transform="translate(13.627 8.709)">
      <g id="Group_46" data-name="Group 46">
        <path id="Path_286" data-name="Path 286" d="M17.042,370.439a.2.2,0,0,0-.2.2v1.031a.836.836,0,0,0-1.259.513h-.309a.836.836,0,0,0-1.259-.513v-1.031a.2.2,0,0,0-.392,0v1.74a.837.837,0,0,0,1.651.2h.309a.837.837,0,0,0,1.651-.2v-1.74A.2.2,0,0,0,17.042,370.439Zm-2.577,2.381a.445.445,0,1,1,.445-.445A.445.445,0,0,1,14.464,372.82Zm1.936,0a.445.445,0,1,1,.445-.445A.445.445,0,0,1,16.4,372.82Z" transform="translate(-13.627 -370.439)" fill="#262e3c" stroke="#262e3c" stroke-width="0.3"/>
      </g>
    </g>
    <g id="Group_49" data-name="Group 49" transform="translate(21.988 3.544)">
      <g id="Group_48" data-name="Group 48">
        <path id="Path_287" data-name="Path 287" d="M372.113,150.726a.2.2,0,0,0-.2.2v4.391H369.47a.2.2,0,0,0,0,.392h2.643a.2.2,0,0,0,.2-.2v-4.588A.2.2,0,0,0,372.113,150.726Z" transform="translate(-369.274 -150.726)" fill="#262e3c" stroke="#262e3c" stroke-width="0.3"/>
      </g>
    </g>
    <g id="Group_51" data-name="Group 51" transform="translate(21.962 1.783)">
      <g id="Group_50" data-name="Group 50">
        <path id="Path_288" data-name="Path 288" d="M371.025,75.807h-2.669a.2.2,0,0,0,0,.392h2.473v.911a.2.2,0,1,0,.392,0V76A.2.2,0,0,0,371.025,75.807Z" transform="translate(-368.16 -75.807)" fill="#262e3c" stroke="#262e3c" stroke-width="0.3"/>
      </g>
    </g>
    <g id="Group_53" data-name="Group 53" transform="translate(22.59 2.349)">
      <g id="Group_52" data-name="Group 52">
        <path id="Path_289" data-name="Path 289" d="M395.853,101.053h-.589v-.183h.2a.2.2,0,0,0,0-.392h-.2v-.183h.589a.2.2,0,0,0,0-.392h-.785a.2.2,0,0,0-.2.2v1.151a.2.2,0,0,0,.2.2h.785a.2.2,0,0,0,0-.392Z" transform="translate(-394.872 -99.902)" fill="#262e3c" stroke="#262e3c" stroke-width="0.3"/>
      </g>
    </g>
    <g id="Group_55" data-name="Group 55" transform="translate(23.218 4.207)">
      <g id="Group_54" data-name="Group 54">
        <path id="Path_290" data-name="Path 290" d="M422.093,178.922h-.314a.2.2,0,0,0-.2.2v.942a.2.2,0,1,0,.392,0v-.118h.118a.51.51,0,1,0,0-1.02Zm0,.628h-.118v-.235h.118a.118.118,0,0,1,0,.235Z" transform="translate(-421.583 -178.922)" fill="#262e3c" stroke="#262e3c" stroke-width="0.3"/>
      </g>
    </g>
    <g id="Group_57" data-name="Group 57" transform="translate(23.035 7.425)">
      <g id="Group_56" data-name="Group 56">
        <path id="Path_291" data-name="Path 291" d="M414.826,315.814h-.837a.2.2,0,0,0,0,.392h.837a.2.2,0,0,0,0-.392Z" transform="translate(-413.792 -315.814)" fill="#262e3c" stroke="#262e3c" stroke-width="0.3"/>
      </g>
    </g>
    <g id="Group_59" data-name="Group 59" transform="translate(23.584 6.614)">
      <g id="Group_58" data-name="Group 58">
        <path id="Path_292" data-name="Path 292" d="M437.648,281.313h-.288a.2.2,0,1,0,0,.392h.288a.2.2,0,0,0,0-.392Z" transform="translate(-437.164 -281.313)" fill="#262e3c" stroke="#262e3c" stroke-width="0.3"/>
      </g>
    </g>
    <g id="Group_61" data-name="Group 61" transform="translate(16.742 2.179)">
      <g id="Group_60" data-name="Group 60">
        <circle id="Ellipse_41" data-name="Ellipse 41" cx="0.196" cy="0.196" r="0.196" fill="#262e3c" stroke="#262e3c" stroke-width="0.3"/>
      </g>
    </g>
  </g>
</svg>
