<svg xmlns="http://www.w3.org/2000/svg" width="12.711" height="14.049" viewBox="0 0 12.711 14.049">
  <g id="XMLID_3_" transform="translate(-14 -4)">
    <path id="XMLID_6_" d="M25,22.791h9.362L33.926,21.6a2.757,2.757,0,0,1-.174-.571.583.583,0,0,1,1.126-.213h0l.722,1.977h.879V14H25Zm2.85-5.712h2.357v-.672H28a.22.22,0,0,1-.218-.224A.224.224,0,0,1,28,15.96h2.212v-.728h-1.73a.224.224,0,0,1,0-.448h1.73v-.336h1.12v.336h1.719a.22.22,0,0,1,.218.224.224.224,0,0,1-.218.224H31.327v.728h2.212a.22.22,0,0,1,.218.224.224.224,0,0,1-.218.224H31.327v.672h2.357a.22.22,0,0,1,.218.224.224.224,0,0,1-.218.224H31.327V18.2H33.41a.22.22,0,0,1,.218.224.224.224,0,0,1-.218.224H31.327v.672h2a.224.224,0,0,1,.207.218c0,1.181-.14,1.741-.762,1.741-.644,0-.778-1.394-1.45-1.484v1.316h-1.12V19.79c-.728.056-.829,1.5-1.5,1.5-.622,0-.734-.566-.734-1.747a.229.229,0,0,1,.213-.218h2.021v-.672H28.113a.22.22,0,0,1-.218-.224.224.224,0,0,1,.218-.224h2.094v-.672H27.85a.224.224,0,0,1,0-.448Z" transform="translate(-10.384 -9.44)" fill="none"/>
    <path id="XMLID_12_" d="M26.711,4H14v9.967h6.843l.745,1.937a1.7,1.7,0,0,0,1.277,1.086l.347,1.058H26.14l-.694-2a1.706,1.706,0,0,0,.28-1.657l-.19-.426h1.176Zm-.616,9.351h-.879l-.722-1.977h0a.588.588,0,0,0-.543-.37.582.582,0,0,0-.582.582,2.757,2.757,0,0,0,.174.571l.437,1.193H14.616V4.56H26.095Z" fill="#262e3c"/>
    <path id="XMLID_13_" d="M72.218,25.08h2.357v.672H72.482a.22.22,0,0,0-.218.224.224.224,0,0,0,.218.224h2.094v.672H72.554a.224.224,0,0,0-.207.218c0,1.182.106,1.741.728,1.741.672,0,.773-1.433,1.5-1.489v1.321H75.7V27.348c.672.09.806,1.489,1.45,1.489.622,0,.767-.566.767-1.747a.229.229,0,0,0-.213-.218h-2V26.2h2.083A.22.22,0,0,0,78,25.976a.224.224,0,0,0-.218-.224H75.7V25.08h2.357a.22.22,0,0,0,.218-.224.224.224,0,0,0-.218-.224H75.7V23.96h2.212a.22.22,0,0,0,.218-.224.224.224,0,0,0-.218-.224H75.7v-.728h1.719a.22.22,0,0,0,.218-.224.224.224,0,0,0-.218-.224H75.7V22h-1.12v.336h-1.73a.224.224,0,0,0,0,.448h1.73v.728H72.364a.22.22,0,0,0-.218.224.224.224,0,0,0,.218.224h2.212v.672H72.218a.224.224,0,0,0,0,.448Z" transform="translate(-54.752 -16.992)" fill="#262e3c"/>
  </g>
</svg>
