<svg id="Group_178" data-name="Group 178" xmlns="http://www.w3.org/2000/svg" width="20.906" height="17.499" viewBox="0 0 20.906 17.499">
  <g id="Group_177" data-name="Group 177" transform="translate(0 0)">
    <path id="Path_542" data-name="Path 542" d="M18.91,30.938A8.75,8.75,0,0,0,2,30.938a2.261,2.261,0,0,0,0,4.49,8.75,8.75,0,0,0,16.914,0,2.261,2.261,0,0,0,0-4.49ZM10.453,40.28A7.1,7.1,0,0,1,6.718,27.151a.459.459,0,0,1-.22.381.826.826,0,1,0,.861,1.411,2.113,2.113,0,0,0,.893-2.506q.289-.095.589-.165a2.616,2.616,0,0,1-1.077,3.17.826.826,0,1,0,.861,1.411,4.272,4.272,0,0,0,1.892-4.765,7.116,7.116,0,0,1,.953.072A4.307,4.307,0,0,1,9.549,30.9a.826.826,0,1,0,.861,1.411,5.969,5.969,0,0,0,2.819-5.661A7.1,7.1,0,0,1,10.453,40.28Z" transform="translate(0 -24.434)" fill="#ea5544"/>
    <path id="Path_543" data-name="Path 543" d="M94.409,148.248a.826.826,0,0,0-.826-.826h-.957a.826.826,0,0,0,0,1.653h.957A.826.826,0,0,0,94.409,148.248Z" transform="translate(-85.399 -138.846)" fill="#ea5544"/>
    <path id="Path_544" data-name="Path 544" d="M172.393,147.422h-.957a.826.826,0,1,0,0,1.653h.957a.826.826,0,0,0,0-1.653Z" transform="translate(-158.714 -138.846)" fill="#ea5544"/>
    <path id="Path_545" data-name="Path 545" d="M118.3,198.1a.826.826,0,0,0-1.166.081,1.443,1.443,0,0,1-2.179,0,.826.826,0,1,0-1.247,1.085,3.1,3.1,0,0,0,4.672,0A.826.826,0,0,0,118.3,198.1Z" transform="translate(-105.588 -185.805)" fill="#ea5544"/>
  </g>
</svg>
