<svg xmlns="http://www.w3.org/2000/svg" width="23.345" height="27.647" viewBox="0 0 23.345 27.647">
  <g id="temperature-svgrepo-com" transform="translate(-4.668)">
    <path id="Path_491" data-name="Path 491" d="M27.755,17.631V3.226a3.226,3.226,0,1,0-6.451,0V17.631a5.53,5.53,0,1,0,6.451,0ZM27.6,25.553a4.607,4.607,0,1,1-5.585-7.295l.209-.136v-.611h.461a.461.461,0,0,0,0-.922h-.461V15.207h.461a.461.461,0,0,0,0-.922h-.461V12.9h.461a.461.461,0,0,0,0-.922h-.461V10.6h.461a.461.461,0,0,0,0-.922h-.461V8.295h.461a.461.461,0,0,0,0-.922h-.461V5.99h.461a.461.461,0,0,0,0-.922h-.461V3.686h.461a.461.461,0,0,0,0-.922h-.414a2.3,2.3,0,0,1,4.562.461v.461h-.461a.461.461,0,0,0,0,.922h.461V5.99h-.461a.461.461,0,0,0,0,.922h.461V8.295h-.461a.461.461,0,0,0,0,.922h.461V10.6h-.461a.461.461,0,0,0,0,.922h.461V12.9h-.461a.461.461,0,0,0,0,.922h.461v1.382h-.461a.461.461,0,0,0,0,.922h.461v1.995l.209.136a4.6,4.6,0,0,1,.559,7.294Z" transform="translate(-7.727)" fill="#262e3c"/>
    <path id="Path_492" data-name="Path 492" d="M28.764,39.272V36.461a.461.461,0,0,0-.922,0v2.811a2.3,2.3,0,1,0,.922,0Z" transform="translate(-11.501 -19.411)" fill="#262e3c"/>
    <path id="Path_493" data-name="Path 493" d="M49.35,9.518l-1.3-.753,1.3-.753a.461.461,0,1,0-.461-.8l-1.3.753V6.461a.461.461,0,1,0-.922,0V7.967l-1.3-.753a.461.461,0,1,0-.461.8l1.3.753-1.3.753a.461.461,0,1,0,.461.8l1.3-.753v1.506a.461.461,0,1,0,.922,0V9.563l1.3.753a.461.461,0,1,0,.461-.8Z" transform="translate(-21.568 -3.235)" fill="#262e3c"/>
    <path id="Path_494" data-name="Path 494" d="M9.519,34.382a.461.461,0,0,0-.629-.169l-1.3.753V33.461a.461.461,0,0,0-.922,0v1.506l-1.3-.753a.461.461,0,0,0-.461.8l1.3.753-1.3.753a.461.461,0,1,0,.461.8l1.3-.753v1.506a.461.461,0,1,0,.922,0V36.563l1.3.753a.461.461,0,0,0,.461-.8l-1.3-.753,1.3-.753A.46.46,0,0,0,9.519,34.382Z" transform="translate(0 -17.793)" fill="#262e3c"/>
  </g>
</svg>