<svg xmlns="http://www.w3.org/2000/svg" width="103" height="103.309" viewBox="0 0 103 103.309">
  <g id="Group_84" data-name="Group 84" transform="translate(-71 -218)">
    <circle id="Ellipse_57" data-name="Ellipse 57" cx="51.5" cy="51.5" r="51.5" transform="translate(71 218)" fill="#ea5544"/>
    <g id="XMLID_2_" transform="translate(89.993 235.335)">
      <path id="XMLID_4_" d="M255.392,0H243.078a3.078,3.078,0,0,0,0,6.157h9.235v9.235a3.078,3.078,0,1,0,6.157,0V3.078A3.078,3.078,0,0,0,255.392,0Z" transform="translate(-190.746)" fill="#fff"/>
      <path id="XMLID_5_" d="M54.8,121.338a3.078,3.078,0,0,0-4.943,0l-9.754,13.138L24.08,111.326a3.078,3.078,0,0,0-5.062,0L.547,138.005A3.078,3.078,0,0,0,0,139.758v12.314a3.078,3.078,0,0,0,3.078,3.078H15.392a3.078,3.078,0,1,0,0-6.157H6.157v-8.274l15.392-22.233L37.488,141.51a3.078,3.078,0,0,0,5,.083l9.842-13.255,9.235,12.438v8.217H52.332a3.078,3.078,0,1,0,0,6.157H64.646a3.078,3.078,0,0,0,3.078-3.078V139.758a3.078,3.078,0,0,0-.607-1.835Z" transform="translate(0 -87.425)" fill="#fff"/>
      <path id="XMLID_6_" d="M3.078,18.47a3.078,3.078,0,0,0,3.078-3.078V6.157h9.235a3.078,3.078,0,1,0,0-6.157H3.078A3.078,3.078,0,0,0,0,3.078V15.392A3.078,3.078,0,0,0,3.078,18.47Z" fill="#fff"/>
      <path id="XMLID_7_" d="M155.261,70.523A10.261,10.261,0,1,0,145,60.261,10.273,10.273,0,0,0,155.261,70.523Zm0-14.366a4.1,4.1,0,1,1-4.1,4.1A4.109,4.109,0,0,1,155.261,56.157Z" transform="translate(-115.242 -39.739)" fill="#fff"/>
    </g>
    <g id="add_circle" transform="translate(140.864 306.445)">
      <path id="Path_401" data-name="Path 401" d="M9.432,2a7.432,7.432,0,1,0,7.432,7.432A7.435,7.435,0,0,0,9.432,2Zm3.716,8.176H10.176v2.973H8.689V10.176H5.716V8.689H8.689V5.716h1.486V8.689h2.973Z" transform="translate(-2 -2)" fill="#ea5544"/>
      <g id="add" transform="translate(3.716 3.556)">
        <path id="Path_402" data-name="Path 402" d="M12.636,9.363H9.363v3.272H8.272V9.363H5V8.272H8.272V5H9.363V8.272h3.272Z" transform="translate(-5 -5)" fill="#fff"/>
      </g>
    </g>
  </g>
</svg>
