<svg xmlns="http://www.w3.org/2000/svg" width="19.718" height="13.819" viewBox="0 0 19.718 13.819">
  <g id="pen-svgrepo-com" transform="translate(0 -72.999)">
    <g id="Group_15" data-name="Group 15" transform="translate(0 72.999)">
      <path id="Path_246" data-name="Path 246" d="M19.567,76.42h0l-4.133-3.33a.4.4,0,0,0-.5-.008l-6.574,5a.4.4,0,0,0-.129.473c1.37,3.358,1.523,5.217.574,7.46H.4a.4.4,0,0,0,0,.808H9.123c.008,0,.016,0,.024,0a.015.015,0,0,0,.012,0,.075.075,0,0,0,.028-.008s.008,0,.012,0h0s.008,0,.012,0,.008,0,.012,0,.008,0,.012,0,0,0,.008,0a0,0,0,0,0,0,0s0,0,.008,0,.008,0,.012-.008.008,0,.012-.008a.009.009,0,0,0,.008-.008s0,0,.008,0a0,0,0,0,0,0,0q.194-.139.376-.267c1.7-1.212,2.545-1.819,7.131-1.423a.4.4,0,0,0,.42-.283L19.7,76.848A.4.4,0,0,0,19.567,76.42Zm-3.01,7.8c-3.147-.251-4.606,0-5.774.586l2.537-3.379a1.706,1.706,0,0,0,.574.137h.077a1.587,1.587,0,0,0,1.075-.416,1.678,1.678,0,0,0-1.018-2.906,1.649,1.649,0,0,0-1.717,1.58,1.657,1.657,0,0,0,.372,1.115l-2.537,3.375a7.061,7.061,0,0,0,.073-1.435A13.778,13.778,0,0,0,9.1,78.534l6.073-4.619,3.673,2.962Zm-3.438-4.365a.863.863,0,0,1,.275-.59.828.828,0,0,1,.558-.218h.036a.846.846,0,0,1,.788.9.86.86,0,0,1-.275.6.786.786,0,0,1-.566.206.794.794,0,0,1-.461-.162s-.012-.008-.016-.016-.008,0-.012-.008A.85.85,0,0,1,13.119,79.859Z" transform="translate(0 -72.999)"/>
    </g>
  </g>
</svg>