<svg xmlns="http://www.w3.org/2000/svg" width="19.192" height="20.472" viewBox="0 0 19.192 20.472">
  <g id="weight-svgrepo-com" transform="translate(-16)">
    <path id="Path_489" data-name="Path 489" d="M240.64,114.239a.64.64,0,0,1-.64-.64v-.96a.64.64,0,0,1,1.279,0v.96A.64.64,0,0,1,240.64,114.239Z" transform="translate(-215.044 -107.522)" fill="#262e3c"/>
    <path id="Path_490" data-name="Path 490" d="M32.633,0H18.559A2.562,2.562,0,0,0,16,2.559V19.832a.64.64,0,0,0,.64.64H34.552a.64.64,0,0,0,.64-.64V2.559A2.562,2.562,0,0,0,32.633,0Zm-4.8,1.279V3.365a3.512,3.512,0,0,0-4.478,0V1.279ZM25.6,8.317a2.239,2.239,0,1,1,2.239-2.239A2.242,2.242,0,0,1,25.6,8.317ZM17.279,2.559a1.281,1.281,0,0,1,1.279-1.279h3.519v4.8a3.522,3.522,0,0,0,2.879,3.457v9.657H17.279ZM33.913,19.192H26.236V9.535a3.522,3.522,0,0,0,2.879-3.457v-4.8h3.519a1.281,1.281,0,0,1,1.279,1.279Z" fill="#262e3c"/>
  </g>
</svg>